<?xml version="1.0" encoding="UTF-8"?>
<!DOCTYPE svg PUBLIC "-//W3C//DTD SVG 1.1//EN" "http://www.w3.org/Graphics/SVG/1.1/DTD/svg11.dtd">
<svg xmlns="http://www.w3.org/2000/svg" version="1.1" width="314px" height="296px" style="shape-rendering:geometricPrecision; text-rendering:geometricPrecision; image-rendering:optimizeQuality; fill-rule:evenodd; clip-rule:evenodd" xmlns:xlink="http://www.w3.org/1999/xlink">
<g><path style="opacity:0.992" fill="#1b1c1f" d="M -0.5,3.5 C 4.5,3.5 9.5,3.5 14.5,3.5C 14.5,22.1667 14.5,40.8333 14.5,59.5C 9.50678,59.0843 4.50678,58.7509 -0.5,58.5C -0.5,40.1667 -0.5,21.8333 -0.5,3.5 Z"/></g>
<g><path style="opacity:0.991" fill="#5d5a56" d="M 225.5,3.5 C 226.167,3.5 226.833,3.5 227.5,3.5C 227.171,18.3428 227.504,33.0095 228.5,47.5C 228.5,50.1667 228.5,52.8333 228.5,55.5C 228.5,56.8333 228.5,58.1667 228.5,59.5C 227.5,59.5 226.5,59.5 225.5,59.5C 225.5,40.8333 225.5,22.1667 225.5,3.5 Z"/></g>
<g><path style="opacity:0.994" fill="#1c1c1c" d="M 229.5,3.5 C 234.167,3.5 238.833,3.5 243.5,3.5C 243.213,19.202 243.546,34.8686 244.5,50.5C 241.365,51.1132 238.365,52.1132 235.5,53.5C 230.58,53.8138 228.58,51.4804 229.5,46.5C 229.5,32.1667 229.5,17.8333 229.5,3.5 Z"/></g>
<g><path style="opacity:1" fill="#fdce0a" d="M 22.5,4.5 C 39.8333,4.5 57.1667,4.5 74.5,4.5C 74.5,22.5 74.5,40.5 74.5,58.5C 57.1138,59.7777 39.7804,59.7777 22.5,58.5C 22.5,40.5 22.5,22.5 22.5,4.5 Z"/></g>
<g><path style="opacity:1" fill="#fdcd07" d="M 304.5,57.5 C 303.711,57.7828 303.044,58.2828 302.5,59C 285.662,59.8283 268.995,59.6616 252.5,58.5C 252.5,40.5 252.5,22.5 252.5,4.5C 269.833,4.5 287.167,4.5 304.5,4.5C 304.5,22.1667 304.5,39.8333 304.5,57.5 Z"/></g>
<g><path style="opacity:0.299" fill="#b6b5b3" d="M 225.5,3.5 C 225.5,22.1667 225.5,40.8333 225.5,59.5C 224.833,59.5 224.167,59.5 223.5,59.5C 223.5,59.1667 223.5,58.8333 223.5,58.5C 223.476,40.4846 223.309,22.4846 223,4.5C 223.671,3.74756 224.504,3.41423 225.5,3.5 Z"/></g>
<g><path style="opacity:1" fill="#343433" d="M 227.5,3.5 C 228.167,3.5 228.833,3.5 229.5,3.5C 229.5,17.8333 229.5,32.1667 229.5,46.5C 228.833,46.5 228.5,46.8333 228.5,47.5C 227.504,33.0095 227.171,18.3428 227.5,3.5 Z"/></g>
<g><path style="opacity:1" fill="#433712" d="M 246.5,3.5 C 247.167,3.5 247.833,3.5 248.5,3.5C 248.5,3.83333 248.5,4.16667 248.5,4.5C 247.833,22.5 247.167,40.5 246.5,58.5C 246.5,40.1667 246.5,21.8333 246.5,3.5 Z"/></g>
<g><path style="opacity:1" fill="#604911" d="M 248.5,4.5 C 248.5,22.8333 248.5,41.1667 248.5,59.5C 240.889,60.4337 233.222,60.7671 225.5,60.5C 225.5,60.1667 225.5,59.8333 225.5,59.5C 226.5,59.5 227.5,59.5 228.5,59.5C 234.591,59.7886 240.591,59.4553 246.5,58.5C 247.167,40.5 247.833,22.5 248.5,4.5 Z"/></g>
<g><path style="opacity:1" fill="#846d11" d="M 248.5,3.5 C 249.167,3.5 249.833,3.5 250.5,3.5C 250.5,3.83333 250.5,4.16667 250.5,4.5C 250.667,22.5031 250.5,40.5031 250,58.5C 249.617,59.056 249.117,59.3893 248.5,59.5C 248.5,41.1667 248.5,22.8333 248.5,4.5C 248.5,4.16667 248.5,3.83333 248.5,3.5 Z"/></g>
<g><path style="opacity:0.276" fill="#fee7a5" d="M 306.5,3.5 C 307.725,8.2895 308.392,13.2895 308.5,18.5C 307.833,30.8333 307.167,43.1667 306.5,55.5C 306.5,38.1667 306.5,20.8333 306.5,3.5 Z"/></g>
<g><path style="opacity:1" fill="#9f860e" d="M 19.5,3.5 C 20.1667,3.5 20.8333,3.5 21.5,3.5C 21.5,3.83333 21.5,4.16667 21.5,4.5C 20.5031,22.9925 20.1698,41.6592 20.5,60.5C 19.503,41.674 19.1697,22.674 19.5,3.5 Z"/></g>
<g><path style="opacity:1" fill="#ccab04" d="M 21.5,4.5 C 21.8333,4.5 22.1667,4.5 22.5,4.5C 22.5,22.5 22.5,40.5 22.5,58.5C 22.5,60.1667 22.5,61.8333 22.5,63.5C 21.8333,63.5 21.1667,63.5 20.5,63.5C 20.5,62.5 20.5,61.5 20.5,60.5C 20.1698,41.6592 20.5031,22.9925 21.5,4.5 Z"/></g>
<g><path style="opacity:1" fill="#f9d46e" d="M 306.5,3.5 C 306.5,20.8333 306.5,38.1667 306.5,55.5C 306.5,76.1667 306.5,96.8333 306.5,117.5C 306.167,117.5 305.833,117.5 305.5,117.5C 305.83,97.9928 305.497,78.6595 304.5,59.5C 304.5,58.8333 304.5,58.1667 304.5,57.5C 304.5,39.8333 304.5,22.1667 304.5,4.5C 287.167,4.5 269.833,4.5 252.5,4.5C 252.5,22.5 252.5,40.5 252.5,58.5C 252.167,58.5 251.833,58.5 251.5,58.5C 251.83,40.3256 251.497,22.3256 250.5,4.5C 250.5,4.16667 250.5,3.83333 250.5,3.5C 269.016,2.22611 287.683,2.22611 306.5,3.5 Z"/></g>
<g><path style="opacity:1" fill="#1d170e" d="M 243.5,3.5 C 244.167,3.5 244.833,3.5 245.5,3.5C 245.667,20.8365 245.5,38.1699 245,55.5C 239.5,56.8112 234,56.8112 228.5,55.5C 228.5,52.8333 228.5,50.1667 228.5,47.5C 228.5,46.8333 228.833,46.5 229.5,46.5C 228.58,51.4804 230.58,53.8138 235.5,53.5C 238.365,52.1132 241.365,51.1132 244.5,50.5C 243.546,34.8686 243.213,19.202 243.5,3.5 Z"/></g>
<g><path style="opacity:0.325" fill="#fff0c3" d="M 75.5,3.5 C 76.5,3.5 77.5,3.5 78.5,3.5C 78.6367,21.8726 78.9701,40.2059 79.5,58.5C 79.5,58.8333 79.5,59.1667 79.5,59.5C 79.1667,59.5 78.8333,59.5 78.5,59.5C 77.8456,41.0687 77.1789,22.7354 76.5,4.5C 75.8333,4.5 75.5,4.16667 75.5,3.5 Z"/></g>
<g><path style="opacity:1" fill="#fbdc73" d="M 75.5,3.5 C 75.5,4.16667 75.8333,4.5 76.5,4.5C 76.5,22.8333 76.5,41.1667 76.5,59.5C 76.1667,59.5 75.8333,59.5 75.5,59.5C 75.5,58.8333 75.1667,58.5 74.5,58.5C 74.5,40.5 74.5,22.5 74.5,4.5C 57.1667,4.5 39.8333,4.5 22.5,4.5C 22.1667,4.5 21.8333,4.5 21.5,4.5C 21.5,4.16667 21.5,3.83333 21.5,3.5C 39.5102,2.37436 57.5102,2.37436 75.5,3.5 Z"/></g>
<g><path style="opacity:0.791" fill="#fae391" d="M 76.5,4.5 C 77.1789,22.7354 77.8456,41.0687 78.5,59.5C 78.1667,59.5 77.8333,59.5 77.5,59.5C 77.1667,59.5 76.8333,59.5 76.5,59.5C 76.5,41.1667 76.5,22.8333 76.5,4.5 Z"/></g>
<g><path style="opacity:0.275" fill="#fde8ba" d="M 308.5,18.5 C 308.656,51.8402 308.323,85.1736 307.5,118.5C 306.833,118.5 306.5,118.167 306.5,117.5C 306.5,96.8333 306.5,76.1667 306.5,55.5C 307.167,43.1667 307.833,30.8333 308.5,18.5 Z"/></g>
<g><path style="opacity:1" fill="#331f0a" d="M 245.5,3.5 C 245.833,3.5 246.167,3.5 246.5,3.5C 246.5,21.8333 246.5,40.1667 246.5,58.5C 240.591,59.4553 234.591,59.7886 228.5,59.5C 228.5,58.1667 228.5,56.8333 228.5,55.5C 234,56.8112 239.5,56.8112 245,55.5C 245.5,38.1699 245.667,20.8365 245.5,3.5 Z"/></g>
<g><path style="opacity:0.302" fill="#fae3c4" d="M 79.5,58.5 C 93.8372,58.3334 108.171,58.5001 122.5,59C 126.025,59.1787 129.359,59.6787 132.5,60.5C 114.659,60.8301 96.9921,60.4967 79.5,59.5C 79.5,59.1667 79.5,58.8333 79.5,58.5 Z"/></g>
<g><path style="opacity:0.372" fill="#c6c5c5" d="M 192.5,59.5 C 191.209,59.2627 190.209,59.596 189.5,60.5C 182.08,60.2027 174.746,60.536 167.5,61.5C 167.577,60.2502 168.244,59.4169 169.5,59C 177.345,58.1777 185.011,58.3443 192.5,59.5 Z"/></g>
<g><path style="opacity:0.349" fill="#f3e1bf" d="M 223.5,58.5 C 223.5,58.8333 223.5,59.1667 223.5,59.5C 212.679,60.4946 201.679,60.8279 190.5,60.5C 190.167,60.5 189.833,60.5 189.5,60.5C 190.209,59.596 191.209,59.2627 192.5,59.5C 202.819,58.8182 213.153,58.4848 223.5,58.5 Z"/></g>
<g><path style="opacity:0.815" fill="#f7d19c" d="M 77.5,59.5 C 77.8333,59.5 78.1667,59.5 78.5,59.5C 78.8333,59.5 79.1667,59.5 79.5,59.5C 96.9921,60.4967 114.659,60.8301 132.5,60.5C 133.75,60.5774 134.583,61.244 135,62.5C 135.5,76.1626 135.667,89.8293 135.5,103.5C 134.833,90.5 134.167,77.5 133.5,64.5C 133.119,63.0689 132.119,62.2355 130.5,62C 112.836,61.5001 95.1698,61.3334 77.5,61.5C 77.5,60.8333 77.5,60.1667 77.5,59.5 Z"/></g>
<g><path style="opacity:0.905" fill="#debb80" d="M 223.5,59.5 C 224.167,59.5 224.833,59.5 225.5,59.5C 225.5,59.8333 225.5,60.1667 225.5,60.5C 225.5,61.1667 225.167,61.5 224.5,61.5C 213.5,61.5 202.5,61.5 191.5,61.5C 191.167,61.5 190.833,61.5 190.5,61.5C 190.5,61.1667 190.5,60.8333 190.5,60.5C 201.679,60.8279 212.679,60.4946 223.5,59.5 Z"/></g>
<g><path style="opacity:1" fill="#2e2e2f" d="M -0.5,58.5 C 4.50678,58.7509 9.50678,59.0843 14.5,59.5C 14.5,60.5 14.5,61.5 14.5,62.5C 12.0479,63.0654 9.71458,63.7321 7.5,64.5C 4.83333,64.5 2.16667,64.5 -0.5,64.5C -0.5,62.5 -0.5,60.5 -0.5,58.5 Z"/></g>
<g><path style="opacity:1" fill="#f0b01c" d="M 22.5,58.5 C 39.7804,59.7777 57.1138,59.7777 74.5,58.5C 75.1667,58.5 75.5,58.8333 75.5,59.5C 75.5,60.8333 75.5,62.1667 75.5,63.5C 75.1667,63.5 74.8333,63.5 74.5,63.5C 59.4963,63.3334 44.4963,63.5001 29.5,64C 26.363,63.8922 24.0296,65.0589 22.5,67.5C 22.5,66.1667 22.5,64.8333 22.5,63.5C 22.5,61.8333 22.5,60.1667 22.5,58.5 Z"/></g>
<g><path style="opacity:1" fill="#f3b962" d="M 77.5,61.5 C 95.1698,61.3334 112.836,61.5001 130.5,62C 132.119,62.2355 133.119,63.0689 133.5,64.5C 133.5,81.8333 133.5,99.1667 133.5,116.5C 133.5,116.833 133.5,117.167 133.5,117.5C 133.167,117.5 132.833,117.5 132.5,117.5C 132.5,99.8333 132.5,82.1667 132.5,64.5C 131.737,63.7321 130.737,63.2321 129.5,63C 111.995,62.8316 94.6618,62.3316 77.5,61.5 Z"/></g>
<g><path style="opacity:1" fill="#d8ac5a" d="M 191.5,61.5 C 202.5,61.5 213.5,61.5 224.5,61.5C 224.5,61.8333 224.5,62.1667 224.5,62.5C 214.5,62.5 204.5,62.5 194.5,62.5C 193.391,62.5569 192.391,62.8902 191.5,63.5C 191.5,62.8333 191.5,62.1667 191.5,61.5 Z"/></g>
<g><path style="opacity:1" fill="#ab782b" d="M 248.5,59.5 C 248.586,60.4959 248.252,61.3292 247.5,62C 239.841,62.4997 232.174,62.6664 224.5,62.5C 224.5,62.1667 224.5,61.8333 224.5,61.5C 225.167,61.5 225.5,61.1667 225.5,60.5C 233.222,60.7671 240.889,60.4337 248.5,59.5 Z"/></g>
<g><path style="opacity:1" fill="#edad16" d="M 304.5,57.5 C 304.5,58.1667 304.5,58.8333 304.5,59.5C 304.5,60.8333 304.5,62.1667 304.5,63.5C 286.5,63.5 268.5,63.5 250.5,63.5C 251.038,61.8828 251.371,60.2161 251.5,58.5C 251.833,58.5 252.167,58.5 252.5,58.5C 268.995,59.6616 285.662,59.8283 302.5,59C 303.044,58.2828 303.711,57.7828 304.5,57.5 Z"/></g>
<g><path style="opacity:1" fill="#f0ae3c" d="M 75.5,59.5 C 75.8333,59.5 76.1667,59.5 76.5,59.5C 76.8333,59.5 77.1667,59.5 77.5,59.5C 77.5,60.1667 77.5,60.8333 77.5,61.5C 94.6618,62.3316 111.995,62.8316 129.5,63C 130.737,63.2321 131.737,63.7321 132.5,64.5C 114.833,64.5 97.1667,64.5 79.5,64.5C 78.1667,64.1667 76.8333,63.8333 75.5,63.5C 75.5,62.1667 75.5,60.8333 75.5,59.5 Z"/></g>
<g><path style="opacity:1" fill="#dca227" d="M 250.5,4.5 C 251.497,22.3256 251.83,40.3256 251.5,58.5C 251.371,60.2161 251.038,61.8828 250.5,63.5C 232.341,64.4968 214.008,64.8302 195.5,64.5C 195.5,81.5 195.5,98.5 195.5,115.5C 195.167,115.5 194.833,115.5 194.5,115.5C 194.5,97.8333 194.5,80.1667 194.5,62.5C 204.5,62.5 214.5,62.5 224.5,62.5C 232.174,62.6664 239.841,62.4997 247.5,62C 248.252,61.3292 248.586,60.4959 248.5,59.5C 249.117,59.3893 249.617,59.056 250,58.5C 250.5,40.5031 250.667,22.5031 250.5,4.5 Z"/></g>
<g><path style="opacity:1" fill="#1f1e1c" d="M 169.5,65.5 C 172.572,65.1826 175.572,65.5159 178.5,66.5C 178.069,67.2935 177.735,68.1268 177.5,69C 177.752,79.9978 179.085,90.8311 181.5,101.5C 180.954,103.135 180.62,104.801 180.5,106.5C 174.181,103.816 171.181,105.816 171.5,112.5C 170.833,112.5 170.167,112.5 169.5,112.5C 169.5,96.8333 169.5,81.1667 169.5,65.5 Z"/></g>
<g><path style="opacity:1" fill="#fda305" d="M 79.5,64.5 C 97.1667,64.5 114.833,64.5 132.5,64.5C 132.5,82.1667 132.5,99.8333 132.5,117.5C 129.66,116.88 126.826,116.213 124,115.5C 111.579,116.239 97.9124,116.572 83,116.5C 81.8873,115.695 80.7206,115.028 79.5,114.5C 79.7421,97.6877 79.7421,81.021 79.5,64.5 Z"/></g>
<g><path style="opacity:0.404" fill="#fece8c" d="M 133.5,64.5 C 134.167,77.5 134.833,90.5 135.5,103.5C 135.5,108.167 135.5,112.833 135.5,117.5C 134.833,117.167 134.167,116.833 133.5,116.5C 133.5,99.1667 133.5,81.8333 133.5,64.5 Z"/></g>
<g><path style="opacity:1" fill="#191e23" d="M 187.5,64.5 C 186.504,80.6581 186.17,96.9915 186.5,113.5C 181.537,112.746 176.537,112.413 171.5,112.5C 171.181,105.816 174.181,103.816 180.5,106.5C 180.62,104.801 180.954,103.135 181.5,101.5C 179.085,90.8311 177.752,79.9978 177.5,69C 177.735,68.1268 178.069,67.2935 178.5,66.5C 175.572,65.5159 172.572,65.1826 169.5,65.5C 172.087,64.1836 175.087,63.517 178.5,63.5C 181.686,63.502 184.686,63.8353 187.5,64.5 Z"/></g>
<g><path style="opacity:1" fill="#fea303" d="M 246.5,112.5 C 246.5,113.5 246.5,114.5 246.5,115.5C 229.765,116.304 213.098,116.304 196.5,115.5C 197.496,99.3419 197.83,83.0085 197.5,66.5C 211.701,66.6281 227.367,67.2948 244.5,68.5C 245.167,83.3278 245.833,97.9944 246.5,112.5 Z"/></g>
<g><path style="opacity:1" fill="#fda302" d="M 74.5,67.5 C 74.749,83.7688 74.4156,99.7688 73.5,115.5C 59.3755,116.827 45.2088,116.827 31,115.5C 28.3309,116.016 25.8309,116.683 23.5,117.5C 22.6618,117.158 22.3284,116.492 22.5,115.5C 22.5,114.167 22.5,112.833 22.5,111.5C 23.2679,112.263 23.7679,113.263 24,114.5C 24.3333,113.167 24.6667,111.833 25,110.5C 25.3333,96.1667 25.6667,81.8333 26,67.5C 26.5,67 27,66.5 27.5,66C 43.171,66.1343 58.8377,66.6343 74.5,67.5 Z"/></g>
<g><path style="opacity:1" fill="#321c02" d="M 188.5,64.5 C 188.833,64.5 189.167,64.5 189.5,64.5C 189.5,81.5 189.5,98.5 189.5,115.5C 183.021,116.491 176.354,116.824 169.5,116.5C 169.5,116.167 169.5,115.833 169.5,115.5C 175.833,115.5 182.167,115.5 188.5,115.5C 188.5,98.5 188.5,81.5 188.5,64.5 Z"/></g>
<g><path style="opacity:0.953" fill="#5a5955" d="M 190.5,61.5 C 190.833,61.5 191.167,61.5 191.5,61.5C 191.5,62.1667 191.5,62.8333 191.5,63.5C 190.508,63.3284 189.842,63.6618 189.5,64.5C 189.167,64.5 188.833,64.5 188.5,64.5C 188.167,64.5 187.833,64.5 187.5,64.5C 184.686,63.8353 181.686,63.502 178.5,63.5C 175.087,63.517 172.087,64.1836 169.5,65.5C 169.5,81.1667 169.5,96.8333 169.5,112.5C 169.5,113.5 169.5,114.5 169.5,115.5C 169.167,115.5 168.833,115.5 168.5,115.5C 168.333,97.8302 168.5,80.1635 169,62.5C 176.079,61.5201 183.245,61.1868 190.5,61.5 Z"/></g>
<g><path style="opacity:1" fill="#fda302" d="M 303.5,117.5 C 285.928,117.212 269.261,116.545 253.5,115.5C 252.604,99.142 251.938,82.8087 251.5,66.5C 262.052,65.8216 272.719,66.1549 283.5,67.5C 286.833,66.5 290.167,65.5 293.5,64.5C 296.352,66.0909 299.352,67.4242 302.5,68.5C 302.963,84.8203 303.296,101.154 303.5,117.5 Z"/></g>
<g><path style="opacity:1" fill="#cd8b01" d="M 20.5,63.5 C 21.1667,63.5 21.8333,63.5 22.5,63.5C 22.5,64.8333 22.5,66.1667 22.5,67.5C 22.5,82.1667 22.5,96.8333 22.5,111.5C 22.5,112.833 22.5,114.167 22.5,115.5C 21.596,116.209 21.2627,117.209 21.5,118.5C 21.1667,118.5 20.8333,118.5 20.5,118.5C 20.5,100.167 20.5,81.8333 20.5,63.5 Z"/></g>
<g><path style="opacity:1" fill="#5c3e05" d="M 191.5,63.5 C 191.5,80.8333 191.5,98.1667 191.5,115.5C 191.167,115.5 190.833,115.5 190.5,115.5C 190.167,115.5 189.833,115.5 189.5,115.5C 189.5,98.5 189.5,81.5 189.5,64.5C 189.842,63.6618 190.508,63.3284 191.5,63.5 Z"/></g>
<g><path style="opacity:1" fill="#f09904" d="M 251.5,66.5 C 251.938,82.8087 252.604,99.142 253.5,115.5C 250.896,116.215 248.563,116.215 246.5,115.5C 246.5,114.5 246.5,113.5 246.5,112.5C 246.333,97.4963 246.5,82.4963 247,67.5C 248.356,66.6198 249.856,66.2865 251.5,66.5 Z"/></g>
<g><path style="opacity:1" fill="#f7a812" d="M 74.5,63.5 C 74.5,64.8333 74.5,66.1667 74.5,67.5C 58.8377,66.6343 43.171,66.1343 27.5,66C 27,66.5 26.5,67 26,67.5C 25.6667,81.8333 25.3333,96.1667 25,110.5C 24.6667,111.833 24.3333,113.167 24,114.5C 23.7679,113.263 23.2679,112.263 22.5,111.5C 22.5,96.8333 22.5,82.1667 22.5,67.5C 24.0296,65.0589 26.363,63.8922 29.5,64C 44.4963,63.5001 59.4963,63.3334 74.5,63.5 Z"/></g>
<g><path style="opacity:1" fill="#453304" d="M 16.5,3.5 C 17.1667,3.5 17.8333,3.5 18.5,3.5C 18.5,41.5 18.5,79.5 18.5,117.5C 17.8333,117.5 17.5,117.833 17.5,118.5C 17.1667,118.5 16.8333,118.5 16.5,118.5C 16.5,80.1667 16.5,41.8333 16.5,3.5 Z"/></g>
<g><path style="opacity:1" fill="#f09704" d="M 74.5,63.5 C 74.8333,63.5 75.1667,63.5 75.5,63.5C 76.8333,63.8333 78.1667,64.1667 79.5,64.5C 79.7421,81.021 79.7421,97.6877 79.5,114.5C 77.7354,115.461 75.7354,115.795 73.5,115.5C 74.4156,99.7688 74.749,83.7688 74.5,67.5C 74.5,66.1667 74.5,64.8333 74.5,63.5 Z"/></g>
<g><path style="opacity:1" fill="#1f150c" d="M 187.5,64.5 C 187.833,64.5 188.167,64.5 188.5,64.5C 188.5,81.5 188.5,98.5 188.5,115.5C 182.167,115.5 175.833,115.5 169.5,115.5C 169.5,114.5 169.5,113.5 169.5,112.5C 170.167,112.5 170.833,112.5 171.5,112.5C 176.537,112.413 181.537,112.746 186.5,113.5C 186.17,96.9915 186.504,80.6581 187.5,64.5 Z"/></g>
<g><path style="opacity:1" fill="#b6790a" d="M 194.5,62.5 C 194.5,80.1667 194.5,97.8333 194.5,115.5C 194.5,115.833 194.5,116.167 194.5,116.5C 193.833,116.5 193.167,116.5 192.5,116.5C 192.5,115.833 192.167,115.5 191.5,115.5C 191.5,98.1667 191.5,80.8333 191.5,63.5C 192.391,62.8902 193.391,62.5569 194.5,62.5 Z"/></g>
<g><path style="opacity:1" fill="#f8a616" d="M 304.5,59.5 C 305.497,78.6595 305.83,97.9928 305.5,117.5C 305.167,117.5 304.833,117.5 304.5,117.5C 304.167,117.5 303.833,117.5 303.5,117.5C 303.296,101.154 302.963,84.8203 302.5,68.5C 299.352,67.4242 296.352,66.0909 293.5,64.5C 290.167,65.5 286.833,66.5 283.5,67.5C 272.719,66.1549 262.052,65.8216 251.5,66.5C 249.856,66.2865 248.356,66.6198 247,67.5C 246.5,82.4963 246.333,97.4963 246.5,112.5C 245.833,97.9944 245.167,83.3278 244.5,68.5C 227.367,67.2948 211.701,66.6281 197.5,66.5C 197.83,83.0085 197.496,99.3419 196.5,115.5C 196.167,115.5 195.833,115.5 195.5,115.5C 195.5,98.5 195.5,81.5 195.5,64.5C 214.008,64.8302 232.341,64.4968 250.5,63.5C 268.5,63.5 286.5,63.5 304.5,63.5C 304.5,62.1667 304.5,60.8333 304.5,59.5 Z"/></g>
<g><path style="opacity:0.395" fill="#a3a29e" d="M 189.5,60.5 C 189.833,60.5 190.167,60.5 190.5,60.5C 190.5,60.8333 190.5,61.1667 190.5,61.5C 183.245,61.1868 176.079,61.5201 169,62.5C 168.5,80.1635 168.333,97.8302 168.5,115.5C 168.158,116.338 167.492,116.672 166.5,116.5C 166.23,98.1042 166.563,79.7709 167.5,61.5C 174.746,60.536 182.08,60.2027 189.5,60.5 Z"/></g>
<g><path style="opacity:1" fill="#181d20" d="M 14.5,62.5 C 14.5,99.1667 14.5,135.833 14.5,172.5C 11.3843,173.982 8.38425,173.815 5.5,172C 6.19055,170.933 6.69055,169.766 7,168.5C 7.17566,154.259 7.67566,140.092 8.5,126C 6.10882,124.691 6.10882,123.691 8.5,123C 9.01334,116.772 8.34667,110.272 6.5,103.5C 7.15635,92.3032 7.82302,81.1365 8.5,70C 7.59391,68.3005 7.26057,66.4672 7.5,64.5C 9.71458,63.7321 12.0479,63.0654 14.5,62.5 Z"/></g>
<g><path style="opacity:1" fill="#87620c" d="M 18.5,3.5 C 18.8333,3.5 19.1667,3.5 19.5,3.5C 19.1697,22.674 19.503,41.674 20.5,60.5C 20.5,61.5 20.5,62.5 20.5,63.5C 20.5,81.8333 20.5,100.167 20.5,118.5C 20.5,119.167 20.1667,119.5 19.5,119.5C 19.1667,118.833 18.8333,118.167 18.5,117.5C 18.5,79.5 18.5,41.5 18.5,3.5 Z"/></g>
<g><path style="opacity:1" fill="#fd960a" d="M 194.5,115.5 C 194.833,115.5 195.167,115.5 195.5,115.5C 195.833,115.5 196.167,115.5 196.5,115.5C 213.098,116.304 229.765,116.304 246.5,115.5C 248.563,116.215 250.896,116.215 253.5,115.5C 269.261,116.545 285.928,117.212 303.5,117.5C 303.833,117.5 304.167,117.5 304.5,117.5C 304.5,118.167 304.5,118.833 304.5,119.5C 267.676,119.413 231.009,118.746 194.5,117.5C 194.5,117.167 194.5,116.833 194.5,116.5C 194.5,116.167 194.5,115.833 194.5,115.5 Z"/></g>
<g><path style="opacity:1" fill="#fc9405" d="M 79.5,114.5 C 80.7206,115.028 81.8873,115.695 83,116.5C 97.9124,116.572 111.579,116.239 124,115.5C 126.826,116.213 129.66,116.88 132.5,117.5C 132.631,118.239 132.464,118.906 132,119.5C 95.7357,118.836 59.569,118.17 23.5,117.5C 25.8309,116.683 28.3309,116.016 31,115.5C 45.2088,116.827 59.3755,116.827 73.5,115.5C 75.7354,115.795 77.7354,115.461 79.5,114.5 Z"/></g>
<g><path style="opacity:1" fill="#622704" d="M 189.5,115.5 C 189.833,115.5 190.167,115.5 190.5,115.5C 190.586,116.496 190.252,117.329 189.5,118C 182.654,118.821 175.987,118.654 169.5,117.5C 169.5,117.167 169.5,116.833 169.5,116.5C 176.354,116.824 183.021,116.491 189.5,115.5 Z"/></g>
<g><path style="opacity:1" fill="#f78508" d="M 22.5,115.5 C 22.3284,116.492 22.6618,117.158 23.5,117.5C 59.569,118.17 95.7357,118.836 132,119.5C 132.464,118.906 132.631,118.239 132.5,117.5C 132.833,117.5 133.167,117.5 133.5,117.5C 133.427,119.027 134.094,120.027 135.5,120.5C 135.5,120.833 135.5,121.167 135.5,121.5C 97.7912,120.846 60.1245,120.179 22.5,119.5C 21.8333,119.5 21.5,119.167 21.5,118.5C 21.2627,117.209 21.596,116.209 22.5,115.5 Z"/></g>
<g><path style="opacity:0.686" fill="#f2a374" d="M 168.5,115.5 C 168.833,115.5 169.167,115.5 169.5,115.5C 169.5,115.833 169.5,116.167 169.5,116.5C 169.5,116.833 169.5,117.167 169.5,117.5C 168.662,117.842 168.328,118.508 168.5,119.5C 157.581,120.477 146.581,120.81 135.5,120.5C 134.094,120.027 133.427,119.027 133.5,117.5C 133.5,117.167 133.5,116.833 133.5,116.5C 134.167,116.833 134.833,117.167 135.5,117.5C 140.288,118.828 145.454,119.495 151,119.5C 156.344,119.499 161.511,119.166 166.5,118.5C 166.5,117.833 166.5,117.167 166.5,116.5C 167.492,116.672 168.158,116.338 168.5,115.5 Z"/></g>
<g><path style="opacity:0.236" fill="#ffc9a7" d="M 135.5,117.5 C 145.85,117.44 156.183,117.774 166.5,118.5C 161.511,119.166 156.344,119.499 151,119.5C 145.454,119.495 140.288,118.828 135.5,117.5 Z"/></g>
<g><path style="opacity:1" fill="#9c4604" d="M 190.5,115.5 C 190.833,115.5 191.167,115.5 191.5,115.5C 191.703,117.39 191.037,118.89 189.5,120C 182.42,120.795 175.42,120.628 168.5,119.5C 168.328,118.508 168.662,117.842 169.5,117.5C 175.987,118.654 182.654,118.821 189.5,118C 190.252,117.329 190.586,116.496 190.5,115.5 Z"/></g>
<g><path style="opacity:1" fill="#f8850a" d="M 194.5,117.5 C 231.009,118.746 267.676,119.413 304.5,119.5C 304.5,120.167 304.5,120.833 304.5,121.5C 268.163,121.298 231.83,120.798 195.5,120C 194.748,119.329 194.414,118.496 194.5,117.5 Z"/></g>
<g><path style="opacity:1" fill="#e7792d" d="M 191.5,115.5 C 192.167,115.5 192.5,115.833 192.5,116.5C 192.859,118.766 192.192,120.599 190.5,122C 171.995,122.829 153.662,122.662 135.5,121.5C 135.5,121.167 135.5,120.833 135.5,120.5C 146.581,120.81 157.581,120.477 168.5,119.5C 175.42,120.628 182.42,120.795 189.5,120C 191.037,118.89 191.703,117.39 191.5,115.5 Z"/></g>
<g><path style="opacity:1" fill="#f47107" d="M 192.5,116.5 C 193.167,116.5 193.833,116.5 194.5,116.5C 194.5,116.833 194.5,117.167 194.5,117.5C 194.414,118.496 194.748,119.329 195.5,120C 231.83,120.798 268.163,121.298 304.5,121.5C 304.5,122.167 304.5,122.833 304.5,123.5C 287.034,122.46 269.534,122.46 252,123.5C 250.89,121.963 249.39,121.297 247.5,121.5C 247.719,122.675 247.386,123.675 246.5,124.5C 243.095,123.386 239.595,122.719 236,122.5C 225.821,123.765 215.655,123.765 205.5,122.5C 202.054,122.721 199.221,124.055 197,126.5C 195.04,125.708 193.54,124.375 192.5,122.5C 191.465,125.266 189.799,125.932 187.5,124.5C 181.167,124.5 174.833,124.5 168.5,124.5C 168.5,125.5 168.5,126.5 168.5,127.5C 165.753,127.813 163.086,127.48 160.5,126.5C 161.167,125.833 161.833,125.167 162.5,124.5C 162,124.167 161.5,123.833 161,123.5C 155.55,124.43 150.05,124.763 144.5,124.5C 144.5,125.5 144.5,126.5 144.5,127.5C 143.5,127.5 142.5,127.5 141.5,127.5C 141.5,126.167 141.5,124.833 141.5,123.5C 139.278,123.178 137.444,123.845 136,125.5C 135.085,124.672 134.419,123.672 134,122.5C 131.525,126.267 128.525,126.934 125,124.5C 123.667,124.5 122.333,124.5 121,124.5C 108.242,125.323 95.4086,125.823 82.5,126C 81.944,126.383 81.6107,126.883 81.5,127.5C 80.176,131.107 79.5093,135.107 79.5,139.5C 80.101,146.712 80.101,153.878 79.5,161C 81.6465,163.838 81.6465,166.838 79.5,170C 79.6448,170.772 79.9781,171.439 80.5,172C 97.2995,172.443 113.966,171.61 130.5,169.5C 132.833,169.5 135.167,169.5 137.5,169.5C 137.703,171.044 138.37,172.378 139.5,173.5C 139.137,174.183 138.804,174.85 138.5,175.5C 137.833,175.5 137.167,175.5 136.5,175.5C 116.693,174.197 97.0268,174.197 77.5,175.5C 76.8333,175.5 76.1667,175.5 75.5,175.5C 74.5,175.5 73.5,175.5 72.5,175.5C 71.0131,174.196 69.3464,173.03 67.5,172C 68.7932,171.51 70.1266,171.343 71.5,171.5C 71.808,157.297 71.4747,143.13 70.5,129C 70.9054,128.055 71.572,127.388 72.5,127C 68.8736,126.121 66.3736,124.621 65,122.5C 52.7988,123.438 41.7988,123.438 32,122.5C 31.6258,123.416 31.1258,124.25 30.5,125C 28.3853,125.557 26.3853,126.391 24.5,127.5C 23.3377,132.467 23.1711,137.467 24,142.5C 24.9463,152.004 26.113,161.504 27.5,171C 26.8334,173.151 25.5001,174.651 23.5,175.5C 23.1667,175.5 22.8333,175.5 22.5,175.5C 22.5,156.833 22.5,138.167 22.5,119.5C 60.1245,120.179 97.7912,120.846 135.5,121.5C 153.662,122.662 171.995,122.829 190.5,122C 192.192,120.599 192.859,118.766 192.5,116.5 Z"/></g>
<g><path style="opacity:1" fill="#1f160d" d="M 14.5,3.5 C 15.1667,3.5 15.8333,3.5 16.5,3.5C 16.5,41.8333 16.5,80.1667 16.5,118.5C 16.8324,176.336 16.499,234.002 15.5,291.5C 15.5,290.5 15.5,289.5 15.5,288.5C 15.1909,252.5 14.8576,216.5 14.5,180.5C 14.5,177.833 14.5,175.167 14.5,172.5C 14.5,135.833 14.5,99.1667 14.5,62.5C 14.5,61.5 14.5,60.5 14.5,59.5C 14.5,40.8333 14.5,22.1667 14.5,3.5 Z"/></g>
<g><path style="opacity:1" fill="#fd7103" d="M 141.5,127.5 C 139.262,134.584 138.928,141.917 140.5,149.5C 142.821,152.866 143.654,156.533 143,160.5C 141.817,159.269 140.651,159.269 139.5,160.5C 144.776,163.597 150.442,165.93 156.5,167.5C 162.389,165.948 168.389,165.115 174.5,165C 175.981,164.02 177.315,162.853 178.5,161.5C 179.429,162.689 179.762,164.022 179.5,165.5C 181.718,165.386 183.718,164.72 185.5,163.5C 187.809,171.126 184.976,173.126 177,169.5C 171.301,170.766 165.468,171.432 159.5,171.5C 151.972,171.709 144.639,171.042 137.5,169.5C 135.167,169.5 132.833,169.5 130.5,169.5C 130.461,168.417 130.127,167.417 129.5,166.5C 118.201,164.985 106.868,163.985 95.5,163.5C 94.0615,159.552 93.3949,155.385 93.5,151C 94.2778,141.196 94.9445,141.363 95.5,151.5C 105.839,151.666 116.172,151.5 126.5,151C 127.481,143.587 127.814,136.087 127.5,128.5C 113.283,127.4 99.9493,127.4 87.5,128.5C 86.7509,138.827 86.0842,149.16 85.5,159.5C 84.5,159.5 83.5,159.5 82.5,159.5C 81.5964,148.865 81.2631,138.198 81.5,127.5C 81.6107,126.883 81.944,126.383 82.5,126C 95.4086,125.823 108.242,125.323 121,124.5C 122.333,124.5 123.667,124.5 125,124.5C 128.525,126.934 131.525,126.267 134,122.5C 134.419,123.672 135.085,124.672 136,125.5C 137.444,123.845 139.278,123.178 141.5,123.5C 141.5,124.833 141.5,126.167 141.5,127.5 Z"/></g>
<g><path style="opacity:1" fill="#fe6f03" d="M 72.5,175.5 C 56.1667,175.5 39.8333,175.5 23.5,175.5C 25.5001,174.651 26.8334,173.151 27.5,171C 26.113,161.504 24.9463,152.004 24,142.5C 23.1711,137.467 23.3377,132.467 24.5,127.5C 26.3853,126.391 28.3853,125.557 30.5,125C 31.1258,124.25 31.6258,123.416 32,122.5C 41.7988,123.438 52.7988,123.438 65,122.5C 66.3736,124.621 68.8736,126.121 72.5,127C 71.572,127.388 70.9054,128.055 70.5,129C 71.4747,143.13 71.808,157.297 71.5,171.5C 70.1266,171.343 68.7932,171.51 67.5,172C 69.3464,173.03 71.0131,174.196 72.5,175.5 Z"/></g>
<g><path style="opacity:1" fill="#fe6f00" d="M 81.5,127.5 C 81.2631,138.198 81.5964,148.865 82.5,159.5C 83.5,159.5 84.5,159.5 85.5,159.5C 86.0842,149.16 86.7509,138.827 87.5,128.5C 99.9493,127.4 113.283,127.4 127.5,128.5C 127.814,136.087 127.481,143.587 126.5,151C 116.172,151.5 105.839,151.666 95.5,151.5C 94.9445,141.363 94.2778,141.196 93.5,151C 93.3949,155.385 94.0615,159.552 95.5,163.5C 106.868,163.985 118.201,164.985 129.5,166.5C 130.127,167.417 130.461,168.417 130.5,169.5C 113.966,171.61 97.2995,172.443 80.5,172C 79.9781,171.439 79.6448,170.772 79.5,170C 81.6465,166.838 81.6465,163.838 79.5,161C 80.101,153.878 80.101,146.712 79.5,139.5C 79.5093,135.107 80.176,131.107 81.5,127.5 Z"/></g>
<g><path style="opacity:1" fill="#fe7002" d="M 187.5,124.5 C 186.017,128.098 185.351,131.931 185.5,136C 186.436,145.257 186.436,154.423 185.5,163.5C 183.718,164.72 181.718,165.386 179.5,165.5C 179.762,164.022 179.429,162.689 178.5,161.5C 177.315,162.853 175.981,164.02 174.5,165C 168.389,165.115 162.389,165.948 156.5,167.5C 150.442,165.93 144.776,163.597 139.5,160.5C 140.651,159.269 141.817,159.269 143,160.5C 143.654,156.533 142.821,152.866 140.5,149.5C 138.928,141.917 139.262,134.584 141.5,127.5C 142.5,127.5 143.5,127.5 144.5,127.5C 144.5,126.5 144.5,125.5 144.5,124.5C 150.05,124.763 155.55,124.43 161,123.5C 161.5,123.833 162,124.167 162.5,124.5C 161.833,125.167 161.167,125.833 160.5,126.5C 163.086,127.48 165.753,127.813 168.5,127.5C 168.5,126.5 168.5,125.5 168.5,124.5C 174.833,124.5 181.167,124.5 187.5,124.5 Z"/></g>
<g><path style="opacity:1" fill="#c15c0a" d="M 20.5,118.5 C 20.8333,118.5 21.1667,118.5 21.5,118.5C 21.5,119.167 21.8333,119.5 22.5,119.5C 22.5,138.167 22.5,156.833 22.5,175.5C 22.5,176.167 22.1667,176.5 21.5,176.5C 21.1583,175.662 20.4916,175.328 19.5,175.5C 19.5,156.833 19.5,138.167 19.5,119.5C 20.1667,119.5 20.5,119.167 20.5,118.5 Z"/></g>
<g><path style="opacity:1" fill="#f86e09" d="M 304.5,123.5 C 304.5,140.5 304.5,157.5 304.5,174.5C 298.824,174.334 293.157,174.501 287.5,175C 285.942,175.21 284.609,175.71 283.5,176.5C 272.147,175.213 260.814,175.213 249.5,176.5C 241.35,175.507 233.017,175.174 224.5,175.5C 212.833,175.5 201.167,175.5 189.5,175.5C 189.167,175.5 188.833,175.5 188.5,175.5C 171.833,175.5 155.167,175.5 138.5,175.5C 138.804,174.85 139.137,174.183 139.5,173.5C 138.37,172.378 137.703,171.044 137.5,169.5C 144.639,171.042 151.972,171.709 159.5,171.5C 165.468,171.432 171.301,170.766 177,169.5C 184.976,173.126 187.809,171.126 185.5,163.5C 186.436,154.423 186.436,145.257 185.5,136C 185.351,131.931 186.017,128.098 187.5,124.5C 189.799,125.932 191.465,125.266 192.5,122.5C 193.54,124.375 195.04,125.708 197,126.5C 199.221,124.055 202.054,122.721 205.5,122.5C 215.655,123.765 225.821,123.765 236,122.5C 239.595,122.719 243.095,123.386 246.5,124.5C 247.386,123.675 247.719,122.675 247.5,121.5C 249.39,121.297 250.89,121.963 252,123.5C 269.534,122.46 287.034,122.46 304.5,123.5 Z"/></g>
<g><path style="opacity:1" fill="#fe7001" d="M 204.5,124.5 C 217.025,125.754 229.359,125.754 241.5,124.5C 243.002,125.083 244.335,125.916 245.5,127C 245,127.5 244.5,128 244,128.5C 243.667,142.167 243.333,155.833 243,169.5C 239.368,169.222 235.702,169.889 232,171.5C 231,170.833 230,170.167 229,169.5C 219.134,168.99 208.968,169.656 198.5,171.5C 197.216,156.854 197.216,142.187 198.5,127.5C 200.444,126.199 202.444,125.199 204.5,124.5 Z"/></g>
<g><path style="opacity:1" fill="#fe6f01" d="M 303.5,162.5 C 303.5,163.833 303.5,165.167 303.5,166.5C 292.915,165.524 282.248,165.191 271.5,165.5C 271.5,163.5 271.5,161.5 271.5,159.5C 268.833,158.167 266.167,158.167 263.5,159.5C 263.929,149.323 264.596,138.99 265.5,128.5C 270.667,128.91 275.667,128.243 280.5,126.5C 284.961,127.296 289.128,127.962 293,128.5C 294,127.833 295,127.167 296,126.5C 297.122,129.309 297.622,132.309 297.5,135.5C 296.833,140.833 296.167,146.167 295.5,151.5C 294.801,156.763 296.634,160.763 301,163.5C 301.902,163.257 302.735,162.923 303.5,162.5 Z"/></g>
<g><path style="opacity:1" fill="#fe7102" d="M 303.5,162.5 C 302.735,162.923 301.902,163.257 301,163.5C 296.634,160.763 294.801,156.763 295.5,151.5C 296.167,146.167 296.833,140.833 297.5,135.5C 297.622,132.309 297.122,129.309 296,126.5C 295,127.167 294,127.833 293,128.5C 289.128,127.962 284.961,127.296 280.5,126.5C 275.667,128.243 270.667,128.91 265.5,128.5C 264.596,138.99 263.929,149.323 263.5,159.5C 266.167,158.167 268.833,158.167 271.5,159.5C 271.5,161.5 271.5,163.5 271.5,165.5C 282.248,165.191 292.915,165.524 303.5,166.5C 303.5,168.167 303.5,169.833 303.5,171.5C 295.366,171.375 287.866,171.708 281,172.5C 273.101,170.341 264.935,169.007 256.5,168.5C 255.167,154.659 254.167,140.825 253.5,127C 255.029,124.264 256.529,124.098 258,126.5C 258.667,123.833 259.333,123.833 260,126.5C 260.667,123.833 261.333,123.833 262,126.5C 267.272,125.733 272.606,125.066 278,124.5C 286.135,125.423 294.302,125.756 302.5,125.5C 303.44,137.796 303.773,150.129 303.5,162.5 Z"/></g>
<g><path style="opacity:1" fill="#e76f1e" d="M 77.5,175.5 C 97.0268,174.197 116.693,174.197 136.5,175.5C 136.833,176.167 137.167,176.833 137.5,177.5C 137.5,178.833 136.833,179.5 135.5,179.5C 134.5,179.167 133.833,178.5 133.5,177.5C 133.082,176.778 132.416,176.278 131.5,176C 113.503,175.5 95.5031,175.333 77.5,175.5 Z"/></g>
<g><path style="opacity:0.798" fill="#e17e43" d="M 77.5,175.5 C 95.5031,175.333 113.503,175.5 131.5,176C 132.416,176.278 133.082,176.778 133.5,177.5C 132.5,177.5 131.5,177.5 130.5,177.5C 124.355,176.51 118.022,176.177 111.5,176.5C 100.321,176.172 89.3206,176.505 78.5,177.5C 77.8333,178.167 77.1667,178.833 76.5,179.5C 76.4326,178.041 76.7659,176.708 77.5,175.5 Z"/></g>
<g><path style="opacity:1" fill="#fb702e" d="M 304.5,117.5 C 304.833,117.5 305.167,117.5 305.5,117.5C 305.5,156.5 305.5,195.5 305.5,234.5C 305.167,234.5 304.833,234.5 304.5,234.5C 304.5,216.167 304.5,197.833 304.5,179.5C 302.777,178.2 300.61,177.533 298,177.5C 293.171,177.042 288.338,176.709 283.5,176.5C 284.609,175.71 285.942,175.21 287.5,175C 293.157,174.501 298.824,174.334 304.5,174.5C 304.5,157.5 304.5,140.5 304.5,123.5C 304.5,122.833 304.5,122.167 304.5,121.5C 304.5,120.833 304.5,120.167 304.5,119.5C 304.5,118.833 304.5,118.167 304.5,117.5 Z"/></g>
<g><path style="opacity:0.23" fill="#ebae79" d="M 78.5,177.5 C 89.3206,176.505 100.321,176.172 111.5,176.5C 111.5,177.5 111.5,178.5 111.5,179.5C 110.833,179.5 110.167,179.5 109.5,179.5C 109.082,178.778 108.416,178.278 107.5,178C 99.8296,177.679 92.1629,177.846 84.5,178.5C 82.7354,177.539 80.7354,177.205 78.5,177.5 Z"/></g>
<g><path style="opacity:1" fill="#aa5b21" d="M 224.5,175.5 C 233.017,175.174 241.35,175.507 249.5,176.5C 249.5,176.833 249.5,177.167 249.5,177.5C 248.833,177.5 248.167,177.5 247.5,177.5C 240.08,177.203 232.746,177.536 225.5,178.5C 225.167,178.5 224.833,178.5 224.5,178.5C 224.167,177.833 223.833,177.167 223.5,176.5C 224.167,176.5 224.5,176.167 224.5,175.5 Z"/></g>
<g><path style="opacity:1" fill="#f45611" d="M 22.5,175.5 C 22.8333,175.5 23.1667,175.5 23.5,175.5C 39.8333,175.5 56.1667,175.5 72.5,175.5C 73.5,175.5 74.5,175.5 75.5,175.5C 74.5251,194.454 74.1918,213.454 74.5,232.5C 74.1667,232.5 73.8333,232.5 73.5,232.5C 72.8462,214.897 72.1795,197.231 71.5,179.5C 70.3926,178.978 69.2259,178.645 68,178.5C 53.6081,179.238 39.4414,179.905 25.5,180.5C 25.6882,198.053 25.3549,215.72 24.5,233.5C 23.8333,233.5 23.1667,233.5 22.5,233.5C 21.5251,214.546 21.1918,195.546 21.5,176.5C 22.1667,176.5 22.5,176.167 22.5,175.5 Z"/></g>
<g><path style="opacity:1" fill="#713f14" d="M 111.5,176.5 C 118.022,176.177 124.355,176.51 130.5,177.5C 129.209,177.263 128.209,177.596 127.5,178.5C 127.5,178.833 127.5,179.167 127.5,179.5C 122.5,179.5 117.5,179.5 112.5,179.5C 112.167,179.5 111.833,179.5 111.5,179.5C 111.5,178.5 111.5,177.5 111.5,176.5 Z"/></g>
<g><path style="opacity:1" fill="#f45816" d="M 283.5,176.5 C 288.338,176.709 293.171,177.042 298,177.5C 300.61,177.533 302.777,178.2 304.5,179.5C 287.85,179.4 271.183,179.4 254.5,179.5C 253.5,197.154 253.167,214.821 253.5,232.5C 252.833,232.833 252.167,233.167 251.5,233.5C 251.667,215.164 251.5,196.83 251,178.5C 250.617,177.944 250.117,177.611 249.5,177.5C 249.5,177.167 249.5,176.833 249.5,176.5C 260.814,175.213 272.147,175.213 283.5,176.5 Z"/></g>
<g><path style="opacity:1" fill="#f7550a" d="M 136.5,175.5 C 137.167,175.5 137.833,175.5 138.5,175.5C 155.167,175.5 171.833,175.5 188.5,175.5C 188.83,191.675 188.496,207.675 187.5,223.5C 187.667,209.163 187.5,194.829 187,180.5C 186.586,180.043 186.086,179.709 185.5,179.5C 184.033,180.695 182.533,180.695 181,179.5C 179.548,181.825 177.881,181.825 176,179.5C 164.564,180.324 153.064,180.491 141.5,180C 140.736,182.069 140.236,184.236 140,186.5C 139.831,198.674 139.331,210.674 138.5,222.5C 138.829,207.324 138.496,192.324 137.5,177.5C 137.167,176.833 136.833,176.167 136.5,175.5 Z"/></g>
<g><path style="opacity:1" fill="#1e1c1d" d="M -0.5,64.5 C 2.16667,64.5 4.83333,64.5 7.5,64.5C 7.26057,66.4672 7.59391,68.3005 8.5,70C 7.82302,81.1365 7.15635,92.3032 6.5,103.5C 8.34667,110.272 9.01334,116.772 8.5,123C 6.10882,123.691 6.10882,124.691 8.5,126C 7.67566,140.092 7.17566,154.259 7,168.5C 6.69055,169.766 6.19055,170.933 5.5,172C 8.38425,173.815 11.3843,173.982 14.5,172.5C 14.5,175.167 14.5,177.833 14.5,180.5C 11.2784,180.108 8.27841,180.608 5.5,182C 6.80873,187.796 7.80873,193.629 8.5,199.5C 8.31215,204.962 7.64549,210.295 6.5,215.5C 8.21182,239.802 8.87849,264.135 8.5,288.5C 5.5,288.5 2.5,288.5 -0.5,288.5C -0.5,213.833 -0.5,139.167 -0.5,64.5 Z"/></g>
<g><path style="opacity:1" fill="#fe4905" d="M 304.5,179.5 C 304.5,197.833 304.5,216.167 304.5,234.5C 287.501,234.141 270.501,233.808 253.5,233.5C 253.5,233.167 253.5,232.833 253.5,232.5C 253.167,214.821 253.5,197.154 254.5,179.5C 271.183,179.4 287.85,179.4 304.5,179.5 Z"/></g>
<g><path style="opacity:1" fill="#fd4906" d="M 73.5,232.5 C 73.5,233.5 73.5,234.5 73.5,235.5C 57.0895,233.95 40.7562,233.284 24.5,233.5C 25.3549,215.72 25.6882,198.053 25.5,180.5C 39.4414,179.905 53.6081,179.238 68,178.5C 69.2259,178.645 70.3926,178.978 71.5,179.5C 72.1795,197.231 72.8462,214.897 73.5,232.5 Z"/></g>
<g><path style="opacity:1" fill="#1d1c1c" d="M 244.5,181.5 C 243.727,198.693 242.727,215.693 241.5,232.5C 237.702,233.483 233.702,233.817 229.5,233.5C 229.5,219.5 229.5,205.5 229.5,191.5C 229.5,187.833 229.5,184.167 229.5,180.5C 234.695,180.179 239.695,180.513 244.5,181.5 Z"/></g>
<g><path style="opacity:0.567" fill="#817f7e" d="M 109.5,179.5 C 110.167,179.5 110.833,179.5 111.5,179.5C 111.833,179.5 112.167,179.5 112.5,179.5C 112.5,197.5 112.5,215.5 112.5,233.5C 118.358,233.822 124.025,233.489 129.5,232.5C 129.833,232.5 130.167,232.5 130.5,232.5C 130.833,232.5 131.167,232.5 131.5,232.5C 132.167,232.5 132.833,232.5 133.5,232.5C 133.5,232.833 133.5,233.167 133.5,233.5C 132.833,233.5 132.5,233.833 132.5,234.5C 131.508,234.328 130.842,234.662 130.5,235.5C 124.491,235.666 118.491,235.499 112.5,235C 111.299,234.097 110.465,232.931 110,231.5C 109.5,214.17 109.333,196.837 109.5,179.5 Z"/></g>
<g><path style="opacity:1" fill="#9a2c0f" d="M 247.5,177.5 C 248.167,177.5 248.833,177.5 249.5,177.5C 250.474,196.12 250.808,214.787 250.5,233.5C 250.5,252.5 250.5,271.5 250.5,290.5C 249.667,254.002 249.167,217.336 249,180.5C 248.487,179.473 247.987,178.473 247.5,177.5 Z"/></g>
<g><path style="opacity:1" fill="#be4515" d="M 249.5,177.5 C 250.117,177.611 250.617,177.944 251,178.5C 251.5,196.83 251.667,215.164 251.5,233.5C 251.167,233.5 250.833,233.5 250.5,233.5C 250.808,214.787 250.474,196.12 249.5,177.5 Z"/></g>
<g><path style="opacity:1" fill="#343431" d="M 112.5,179.5 C 117.5,179.5 122.5,179.5 127.5,179.5C 127.5,180.167 127.5,180.833 127.5,181.5C 122.833,181.5 118.167,181.5 113.5,181.5C 113.5,198.167 113.5,214.833 113.5,231.5C 118.167,231.5 122.833,231.5 127.5,231.5C 127.842,232.338 128.508,232.672 129.5,232.5C 124.025,233.489 118.358,233.822 112.5,233.5C 112.5,215.5 112.5,197.5 112.5,179.5 Z"/></g>
<g><path style="opacity:1" fill="#181d1d" d="M 127.5,181.5 C 127.5,198.167 127.5,214.833 127.5,231.5C 122.833,231.5 118.167,231.5 113.5,231.5C 113.5,214.833 113.5,198.167 113.5,181.5C 118.167,181.5 122.833,181.5 127.5,181.5 Z"/></g>
<g><path style="opacity:1" fill="#161d1f" d="M 14.5,180.5 C 14.8576,216.5 15.1909,252.5 15.5,288.5C 14.1667,288.5 12.8333,288.5 11.5,288.5C 11.7828,287.711 12.2828,287.044 13,286.5C 13.4999,270.837 13.6666,255.17 13.5,239.5C 12.1667,239.5 10.8333,239.5 9.5,239.5C 9.5,255.833 9.5,272.167 9.5,288.5C 9.16667,288.5 8.83333,288.5 8.5,288.5C 8.87849,264.135 8.21182,239.802 6.5,215.5C 7.64549,210.295 8.31215,204.962 8.5,199.5C 7.80873,193.629 6.80873,187.796 5.5,182C 8.27841,180.608 11.2784,180.108 14.5,180.5 Z"/></g>
<g><path style="opacity:1" fill="#680f01" d="M 127.5,179.5 C 127.5,179.167 127.5,178.833 127.5,178.5C 129.467,178.261 131.301,178.594 133,179.5C 133.5,197.164 133.667,214.83 133.5,232.5C 132.833,232.5 132.167,232.5 131.5,232.5C 131.833,215.154 131.5,197.821 130.5,180.5C 129.583,179.873 128.583,179.539 127.5,179.5 Z"/></g>
<g><path style="opacity:1" fill="#461c0b" d="M 16.5,118.5 C 16.8333,118.5 17.1667,118.5 17.5,118.5C 17.1677,175.336 17.501,232.002 18.5,288.5C 18.2627,289.791 18.596,290.791 19.5,291.5C 19.5,291.833 19.5,292.167 19.5,292.5C 18.8333,292.5 18.1667,292.5 17.5,292.5C 16.5084,292.672 15.8417,292.338 15.5,291.5C 16.499,234.002 16.8324,176.336 16.5,118.5 Z"/></g>
<g><path style="opacity:1" fill="#722b10" d="M 18.5,117.5 C 18.8333,118.167 19.1667,118.833 19.5,119.5C 19.5,138.167 19.5,156.833 19.5,175.5C 19.5,195.5 19.5,215.5 19.5,235.5C 19.5,236.833 19.5,238.167 19.5,239.5C 18.5036,255.658 18.1702,271.991 18.5,288.5C 17.501,232.002 17.1677,175.336 17.5,118.5C 17.5,117.833 17.8333,117.5 18.5,117.5 Z"/></g>
<g><path style="opacity:1" fill="#be3c0c" d="M 19.5,175.5 C 20.4916,175.328 21.1583,175.662 21.5,176.5C 21.1918,195.546 21.5251,214.546 22.5,233.5C 22.4431,234.609 22.1098,235.609 21.5,236.5C 20.8333,236.167 20.1667,235.833 19.5,235.5C 19.5,215.5 19.5,195.5 19.5,175.5 Z"/></g>
<g><path style="opacity:1" fill="#241617" d="M 244.5,181.5 C 245.497,198.325 245.83,215.325 245.5,232.5C 244.167,232.5 242.833,232.5 241.5,232.5C 242.727,215.693 243.727,198.693 244.5,181.5 Z"/></g>
<g><path style="opacity:1" fill="#4d1b11" d="M 229.5,179.5 C 234.985,178.348 240.651,178.182 246.5,179C 247.126,179.75 247.626,180.584 248,181.5C 248.5,218.165 248.667,254.832 248.5,291.5C 248.167,291.5 247.833,291.5 247.5,291.5C 247.167,291.5 246.833,291.5 246.5,291.5C 246.667,254.498 246.5,217.498 246,180.5C 240.593,179.527 235.093,179.193 229.5,179.5 Z"/></g>
<g><path style="opacity:1" fill="#fd7c54" d="M 75.5,175.5 C 76.1667,175.5 76.8333,175.5 77.5,175.5C 76.7659,176.708 76.4326,178.041 76.5,179.5C 76.5,197.833 76.5,216.167 76.5,234.5C 75.596,235.209 75.2627,236.209 75.5,237.5C 74.5489,236.081 74.2155,234.415 74.5,232.5C 74.1918,213.454 74.5251,194.454 75.5,175.5 Z"/></g>
<g><path style="opacity:1" fill="#2b140f" d="M 127.5,181.5 C 129.184,198.21 130.184,215.21 130.5,232.5C 130.167,232.5 129.833,232.5 129.5,232.5C 128.508,232.672 127.842,232.338 127.5,231.5C 127.5,214.833 127.5,198.167 127.5,181.5 Z"/></g>
<g><path style="opacity:1" fill="#410e08" d="M 127.5,179.5 C 128.583,179.539 129.583,179.873 130.5,180.5C 131.5,197.821 131.833,215.154 131.5,232.5C 131.167,232.5 130.833,232.5 130.5,232.5C 130.184,215.21 129.184,198.21 127.5,181.5C 127.5,180.833 127.5,180.167 127.5,179.5 Z"/></g>
<g><path style="opacity:1" fill="#a02d0e" d="M 127.5,178.5 C 128.209,177.596 129.209,177.263 130.5,177.5C 131.5,177.5 132.5,177.5 133.5,177.5C 133.833,178.5 134.5,179.167 135.5,179.5C 135.5,197.167 135.5,214.833 135.5,232.5C 134.833,232.5 134.167,232.5 133.5,232.5C 133.667,214.83 133.5,197.164 133,179.5C 131.301,178.594 129.467,178.261 127.5,178.5 Z"/></g>
<g><path style="opacity:0.23" fill="#fca585" d="M 223.5,176.5 C 223.833,177.167 224.167,177.833 224.5,178.5C 223.833,178.5 223.167,178.5 222.5,178.5C 213.676,177.343 204.676,177.176 195.5,178C 194.584,178.374 193.75,178.874 193,179.5C 192.235,185.813 191.735,192.146 191.5,198.5C 192.301,208.982 192.634,219.316 192.5,229.5C 192.243,231.692 191.243,233.359 189.5,234.5C 190.308,215.877 190.808,197.21 191,178.5C 191.75,177.874 192.584,177.374 193.5,177C 203.494,176.5 213.494,176.334 223.5,176.5 Z"/></g>
<g><path style="opacity:0.775" fill="#fa7c54" d="M 189.5,175.5 C 201.167,175.5 212.833,175.5 224.5,175.5C 224.5,176.167 224.167,176.5 223.5,176.5C 213.494,176.334 203.494,176.5 193.5,177C 192.584,177.374 191.75,177.874 191,178.5C 190.808,197.21 190.308,215.877 189.5,234.5C 185.833,234.5 182.167,234.5 178.5,234.5C 163.422,234.816 148.422,234.483 133.5,233.5C 133.5,233.167 133.5,232.833 133.5,232.5C 134.167,232.5 134.833,232.5 135.5,232.5C 153.41,232.826 171.243,232.492 189,231.5C 189.5,212.836 189.667,194.17 189.5,175.5 Z"/></g>
<g><path style="opacity:0.139" fill="#febaa9" d="M 78.5,177.5 C 80.7354,177.205 82.7354,177.539 84.5,178.5C 82.2341,178.141 80.4007,178.808 79,180.5C 78.5,216.832 78.3333,253.165 78.5,289.5C 77.8333,271.5 77.1667,253.5 76.5,235.5C 76.5,235.167 76.5,234.833 76.5,234.5C 76.5,216.167 76.5,197.833 76.5,179.5C 77.1667,178.833 77.8333,178.167 78.5,177.5 Z"/></g>
<g><path style="opacity:1" fill="#361a16" d="M 228.5,179.5 C 228.833,179.5 229.167,179.5 229.5,179.5C 235.093,179.193 240.593,179.527 246,180.5C 246.5,217.498 246.667,254.498 246.5,291.5C 245.833,291.5 245.167,291.5 244.5,291.5C 243.167,290.5 243.167,289.5 244.5,288.5C 245.497,271.675 245.83,254.675 245.5,237.5C 245.5,235.833 245.5,234.167 245.5,232.5C 245.83,215.325 245.497,198.325 244.5,181.5C 239.695,180.513 234.695,180.179 229.5,180.5C 229.5,184.167 229.5,187.833 229.5,191.5C 229.167,191.5 228.833,191.5 228.5,191.5C 228.5,187.5 228.5,183.5 228.5,179.5 Z"/></g>
<g><path style="opacity:1" fill="#76240c" d="M 247.5,177.5 C 247.987,178.473 248.487,179.473 249,180.5C 249.167,217.336 249.667,254.002 250.5,290.5C 250.5,290.833 250.5,291.167 250.5,291.5C 249.833,291.5 249.167,291.5 248.5,291.5C 248.667,254.832 248.5,218.165 248,181.5C 247.626,180.584 247.126,179.75 246.5,179C 240.651,178.182 234.985,178.348 229.5,179.5C 229.167,179.5 228.833,179.5 228.5,179.5C 227.833,179.5 227.167,179.5 226.5,179.5C 226.167,179.5 225.833,179.5 225.5,179.5C 225.5,179.167 225.5,178.833 225.5,178.5C 232.746,177.536 240.08,177.203 247.5,177.5 Z"/></g>
<g><path style="opacity:0.057" fill="#bebbbb" d="M 222.5,178.5 C 223.167,178.5 223.833,178.5 224.5,178.5C 224.83,195.342 224.497,212.008 223.5,228.5C 223.818,211.756 223.485,195.089 222.5,178.5 Z"/></g>
<g><path style="opacity:1" fill="#f0531e" d="M 188.5,175.5 C 188.833,175.5 189.167,175.5 189.5,175.5C 189.667,194.17 189.5,212.836 189,231.5C 171.243,232.492 153.41,232.826 135.5,232.5C 135.5,214.833 135.5,197.167 135.5,179.5C 136.833,179.5 137.5,178.833 137.5,177.5C 138.496,192.324 138.829,207.324 138.5,222.5C 139.092,225.127 139.425,227.794 139.5,230.5C 155.5,230.5 171.5,230.5 187.5,230.5C 187.5,228.167 187.5,225.833 187.5,223.5C 188.496,207.675 188.83,191.675 188.5,175.5 Z"/></g>
<g><path style="opacity:1" fill="#fe4904" d="M 187.5,223.5 C 187.5,225.833 187.5,228.167 187.5,230.5C 171.5,230.5 155.5,230.5 139.5,230.5C 139.425,227.794 139.092,225.127 138.5,222.5C 139.331,210.674 139.831,198.674 140,186.5C 140.236,184.236 140.736,182.069 141.5,180C 153.064,180.491 164.564,180.324 176,179.5C 177.881,181.825 179.548,181.825 181,179.5C 182.533,180.695 184.033,180.695 185.5,179.5C 186.086,179.709 186.586,180.043 187,180.5C 187.5,194.829 187.667,209.163 187.5,223.5 Z"/></g>
<g><path style="opacity:0.369" fill="#f59982" d="M 132.5,234.5 C 132.5,233.833 132.833,233.5 133.5,233.5C 148.422,234.483 163.422,234.816 178.5,234.5C 163.265,235.823 147.931,235.823 132.5,234.5 Z"/></g>
<g><path style="opacity:0.059" fill="#fbb1a0" d="M 130.5,235.5 C 130.842,234.662 131.508,234.328 132.5,234.5C 147.931,235.823 163.265,235.823 178.5,234.5C 182.167,234.5 185.833,234.5 189.5,234.5C 187.369,235.314 185.036,235.814 182.5,236C 165.093,236.818 147.76,236.652 130.5,235.5 Z"/></g>
<g><path style="opacity:0.174" fill="#959594" d="M 224.5,178.5 C 224.833,178.5 225.167,178.5 225.5,178.5C 225.5,178.833 225.5,179.167 225.5,179.5C 225.832,216.67 225.498,253.67 224.5,290.5C 224.762,269.814 224.428,249.147 223.5,228.5C 224.497,212.008 224.83,195.342 224.5,178.5 Z"/></g>
<g><path style="opacity:0.635" fill="#716f6f" d="M 225.5,179.5 C 225.833,179.5 226.167,179.5 226.5,179.5C 226.185,217.197 226.518,254.864 227.5,292.5C 234.167,292.5 240.833,292.5 247.5,292.5C 247.5,292.833 247.5,293.167 247.5,293.5C 240.492,293.666 233.492,293.5 226.5,293C 225.619,292.292 224.953,291.458 224.5,290.5C 225.498,253.67 225.832,216.67 225.5,179.5 Z"/></g>
<g><path style="opacity:1" fill="#4b4948" d="M 226.5,179.5 C 227.167,179.5 227.833,179.5 228.5,179.5C 228.5,183.5 228.5,187.5 228.5,191.5C 228.5,224.833 228.5,258.167 228.5,291.5C 233.833,291.5 239.167,291.5 244.5,291.5C 245.167,291.5 245.833,291.5 246.5,291.5C 246.833,291.5 247.167,291.5 247.5,291.5C 247.5,291.833 247.5,292.167 247.5,292.5C 240.833,292.5 234.167,292.5 227.5,292.5C 226.518,254.864 226.185,217.197 226.5,179.5 Z"/></g>
<g><path style="opacity:1" fill="#2e2d2c" d="M 228.5,191.5 C 228.833,191.5 229.167,191.5 229.5,191.5C 229.5,205.5 229.5,219.5 229.5,233.5C 233.702,233.817 237.702,233.483 241.5,232.5C 242.833,232.5 244.167,232.5 245.5,232.5C 245.5,234.167 245.5,235.833 245.5,237.5C 240.238,237.805 235.072,237.471 230,236.5C 229.5,253.83 229.333,271.163 229.5,288.5C 234.5,288.5 239.5,288.5 244.5,288.5C 243.167,289.5 243.167,290.5 244.5,291.5C 239.167,291.5 233.833,291.5 228.5,291.5C 228.5,258.167 228.5,224.833 228.5,191.5 Z"/></g>
<g><path style="opacity:1" fill="#1d1c1b" d="M 245.5,237.5 C 245.83,254.675 245.497,271.675 244.5,288.5C 239.5,288.5 234.5,288.5 229.5,288.5C 229.333,271.163 229.5,253.83 230,236.5C 235.072,237.471 240.238,237.805 245.5,237.5 Z"/></g>
<g><path style="opacity:1" fill="#931215" d="M 19.5,239.5 C 19.1813,256.91 19.5146,274.244 20.5,291.5C 20.1667,291.5 19.8333,291.5 19.5,291.5C 18.596,290.791 18.2627,289.791 18.5,288.5C 18.1702,271.991 18.5036,255.658 19.5,239.5 Z"/></g>
<g><path style="opacity:1" fill="#f64640" d="M 73.5,232.5 C 73.8333,232.5 74.1667,232.5 74.5,232.5C 74.2155,234.415 74.5489,236.081 75.5,237.5C 75.7794,255.528 75.4461,273.528 74.5,291.5C 56.2431,292.486 37.9098,292.82 19.5,292.5C 19.5,292.167 19.5,291.833 19.5,291.5C 19.8333,291.5 20.1667,291.5 20.5,291.5C 21.4916,291.672 22.1583,291.338 22.5,290.5C 39.1667,290.5 55.8333,290.5 72.5,290.5C 72.5,289.5 72.5,288.5 72.5,287.5C 73.4967,270.341 73.83,253.008 73.5,235.5C 73.5,234.5 73.5,233.5 73.5,232.5 Z"/></g>
<g><path style="opacity:1" fill="#f51f14" d="M 22.5,233.5 C 23.1667,233.5 23.8333,233.5 24.5,233.5C 40.7562,233.284 57.0895,233.95 73.5,235.5C 73.83,253.008 73.4967,270.341 72.5,287.5C 72.5,288.5 72.5,289.5 72.5,290.5C 55.8333,290.5 39.1667,290.5 22.5,290.5C 21.5032,272.674 21.1699,254.674 21.5,236.5C 22.1098,235.609 22.4431,234.609 22.5,233.5 Z"/></g>
<g><path style="opacity:1" fill="#fe0309" d="M 72.5,287.5 C 56.5558,288.755 40.5558,288.755 24.5,287.5C 24.3334,271.497 24.5001,255.497 25,239.5C 26.6692,237.279 28.6692,236.945 31,238.5C 41.4721,237.675 51.9721,237.008 62.5,236.5C 64.8333,236.833 67.1667,237.167 69.5,237.5C 69.2907,238.086 68.9574,238.586 68.5,239C 69.7932,239.49 71.1266,239.657 72.5,239.5C 72.5,255.5 72.5,271.5 72.5,287.5 Z"/></g>
<g><path style="opacity:1" fill="#f22c29" d="M 253.5,232.5 C 253.5,232.833 253.5,233.167 253.5,233.5C 253.5,234.167 253.5,234.833 253.5,235.5C 253.333,252.837 253.5,270.17 254,287.5C 254.383,288.056 254.883,288.389 255.5,288.5C 271.658,289.496 287.991,289.83 304.5,289.5C 304.5,271.167 304.5,252.833 304.5,234.5C 304.833,234.5 305.167,234.5 305.5,234.5C 305.83,253.674 305.497,272.674 304.5,291.5C 286.923,291.825 269.423,291.492 252,290.5C 251.5,271.503 251.333,252.503 251.5,233.5C 252.167,233.167 252.833,232.833 253.5,232.5 Z"/></g>
<g><path style="opacity:1" fill="#fe0309" d="M 253.5,235.5 C 260.047,237.587 266.713,237.921 273.5,236.5C 283.155,237.862 292.822,238.862 302.5,239.5C 301.202,255.781 301.202,272.114 302.5,288.5C 286.833,288.5 271.167,288.5 255.5,288.5C 254.883,288.389 254.383,288.056 254,287.5C 253.5,270.17 253.333,252.837 253.5,235.5 Z"/></g>
<g><path style="opacity:1" fill="#0a1f1d" d="M 11.5,288.5 C 10.8333,288.5 10.1667,288.5 9.5,288.5C 9.5,272.167 9.5,255.833 9.5,239.5C 10.8333,239.5 12.1667,239.5 13.5,239.5C 13.6666,255.17 13.4999,270.837 13,286.5C 12.2828,287.044 11.7828,287.711 11.5,288.5 Z"/></g>
<g><path style="opacity:1" fill="#c21513" d="M 19.5,235.5 C 20.1667,235.833 20.8333,236.167 21.5,236.5C 21.1699,254.674 21.5032,272.674 22.5,290.5C 22.1583,291.338 21.4916,291.672 20.5,291.5C 19.5146,274.244 19.1813,256.91 19.5,239.5C 19.5,238.167 19.5,236.833 19.5,235.5 Z"/></g>
<g><path style="opacity:0.868" fill="#fe6a69" d="M 76.5,234.5 C 76.5,234.833 76.5,235.167 76.5,235.5C 76.6666,253.503 76.4999,271.503 76,289.5C 75.7216,290.416 75.2216,291.082 74.5,291.5C 75.4461,273.528 75.7794,255.528 75.5,237.5C 75.2627,236.209 75.596,235.209 76.5,234.5 Z"/></g>
<g><path style="opacity:1" fill="#fc1f16" d="M 253.5,233.5 C 270.501,233.808 287.501,234.141 304.5,234.5C 304.5,252.833 304.5,271.167 304.5,289.5C 287.991,289.83 271.658,289.496 255.5,288.5C 271.167,288.5 286.833,288.5 302.5,288.5C 301.202,272.114 301.202,255.781 302.5,239.5C 292.822,238.862 283.155,237.862 273.5,236.5C 266.713,237.921 260.047,237.587 253.5,235.5C 253.5,234.833 253.5,234.167 253.5,233.5 Z"/></g>
<g><path style="opacity:0.41" fill="#f88986" d="M 76.5,235.5 C 77.1667,253.5 77.8333,271.5 78.5,289.5C 77.9717,290.721 77.305,291.887 76.5,293C 56.8362,293.5 37.1695,293.667 17.5,293.5C 17.5,293.167 17.5,292.833 17.5,292.5C 18.1667,292.5 18.8333,292.5 19.5,292.5C 37.9098,292.82 56.2431,292.486 74.5,291.5C 75.2216,291.082 75.7216,290.416 76,289.5C 76.4999,271.503 76.6666,253.503 76.5,235.5 Z"/></g>
<g><path style="opacity:1" fill="#414140" d="M -0.5,288.5 C 2.5,288.5 5.5,288.5 8.5,288.5C 8.83333,288.5 9.16667,288.5 9.5,288.5C 10.1667,288.5 10.8333,288.5 11.5,288.5C 12.8333,288.5 14.1667,288.5 15.5,288.5C 15.5,289.5 15.5,290.5 15.5,291.5C 15.8417,292.338 16.5084,292.672 17.5,292.5C 17.5,292.833 17.5,293.167 17.5,293.5C 11.5,293.5 5.5,293.5 -0.5,293.5C -0.5,291.833 -0.5,290.167 -0.5,288.5 Z"/></g>
<g><path style="opacity:0.698" fill="#d93c3a" d="M 250.5,233.5 C 250.833,233.5 251.167,233.5 251.5,233.5C 251.333,252.503 251.5,271.503 252,290.5C 269.423,291.492 286.923,291.825 304.5,291.5C 286.598,292.824 268.598,292.824 250.5,291.5C 250.5,291.167 250.5,290.833 250.5,290.5C 250.5,271.5 250.5,252.5 250.5,233.5 Z"/></g>
<g><path style="opacity:0.161" fill="#fa8c7e" d="M 305.5,117.5 C 305.833,117.5 306.167,117.5 306.5,117.5C 306.5,118.167 306.833,118.5 307.5,118.5C 307.98,176.538 307.48,234.538 306,292.5C 286.576,293.493 267.076,293.826 247.5,293.5C 247.5,293.167 247.5,292.833 247.5,292.5C 247.5,292.167 247.5,291.833 247.5,291.5C 247.833,291.5 248.167,291.5 248.5,291.5C 249.167,291.5 249.833,291.5 250.5,291.5C 268.598,292.824 286.598,292.824 304.5,291.5C 305.497,272.674 305.83,253.674 305.5,234.5C 305.5,195.5 305.5,156.5 305.5,117.5 Z"/></g>
</svg>
