<?xml version="1.0" encoding="UTF-8"?>
<!DOCTYPE svg PUBLIC "-//W3C//DTD SVG 1.1//EN" "http://www.w3.org/Graphics/SVG/1.1/DTD/svg11.dtd">
<svg xmlns="http://www.w3.org/2000/svg" version="1.1" width="344px" height="345px" style="shape-rendering:geometricPrecision; text-rendering:geometricPrecision; image-rendering:optimizeQuality; fill-rule:evenodd; clip-rule:evenodd" xmlns:xlink="http://www.w3.org/1999/xlink">
<g><path style="opacity:0.188" fill="#000406" d="M 73.5,16.5 C 72.5,15.8333 71.5,15.1667 70.5,14.5C 70.1583,13.6618 69.4916,13.3284 68.5,13.5C 67.2267,12.9232 67.2267,12.2565 68.5,11.5C 71.2123,12.212 72.8789,13.8787 73.5,16.5 Z"/></g>
<g><path style="opacity:0.999" fill="#00181c" d="M 274.5,13.5 C 275.498,45.6624 275.832,77.9957 275.5,110.5C 287.5,110.5 299.5,110.5 311.5,110.5C 311.833,156.505 311.5,202.505 310.5,248.5C 309.5,249 308.5,249.5 307.5,250C 296.12,250.811 284.787,250.645 273.5,249.5C 272.702,249.957 272.369,250.624 272.5,251.5C 272.5,280.167 272.5,308.833 272.5,337.5C 271.123,336.444 270.29,335.111 270,333.5C 269.329,334.252 268.496,334.586 267.5,334.5C 266.265,331.699 264.765,329.032 263,326.5C 262.583,327.756 261.75,328.423 260.5,328.5C 260.167,327.5 259.5,326.833 258.5,326.5C 258.291,325.078 257.791,323.745 257,322.5C 256.086,323.654 255.253,323.487 254.5,322C 254.833,321.667 255.167,321.333 255.5,321C 253.133,319.155 250.467,317.989 247.5,317.5C 247.5,317.167 247.5,316.833 247.5,316.5C 245.334,314.163 243.334,311.663 241.5,309C 239.975,307.991 238.308,307.491 236.5,307.5C 236.64,305.876 235.973,304.71 234.5,304C 234.833,303.667 235.167,303.333 235.5,303C 233.479,302.487 231.979,301.32 231,299.5C 230.617,300.056 230.117,300.389 229.5,300.5C 229.027,299.094 228.027,298.427 226.5,298.5C 225.395,296.847 225.229,295.18 226,293.5C 225.586,293.957 225.086,294.291 224.5,294.5C 222.579,292.531 222.579,291.031 224.5,290C 222.527,287.985 220.86,288.152 219.5,290.5C 216.972,289.502 216.972,288.669 219.5,288C 218.386,286.43 217.053,285.097 215.5,284C 217.595,283.444 217.762,282.944 216,282.5C 215.055,282.905 214.388,283.572 214,284.5C 212.989,283.663 211.822,283.33 210.5,283.5C 210.291,282.078 209.791,280.745 209,279.5C 208.667,279.833 208.333,280.167 208,280.5C 206.743,278.254 204.91,276.921 202.5,276.5C 201.871,274.003 200.204,272.67 197.5,272.5C 197.167,271.5 196.5,270.833 195.5,270.5C 194.738,268.738 193.404,267.738 191.5,267.5C 191.5,266.833 191.167,266.5 190.5,266.5C 189.797,264.284 188.464,262.451 186.5,261C 186.833,260.667 187.167,260.333 187.5,260C 184.437,258.934 182.937,256.767 183,253.5C 182.834,257.511 182,258.011 180.5,255C 179.563,254.308 178.897,254.475 178.5,255.5C 177.502,282.328 177.169,309.328 177.5,336.5C 175.901,336.232 174.568,336.566 173.5,337.5C 170.167,337.5 166.833,337.5 163.5,337.5C 163.667,310.165 163.5,282.831 163,255.5C 162.283,256.044 161.783,256.711 161.5,257.5C 161.158,258.338 160.492,258.672 159.5,258.5C 158.883,258.389 158.383,258.056 158,257.5C 157.751,258.624 157.251,259.624 156.5,260.5C 155.38,259.167 154.047,258.667 152.5,259C 153.815,260.395 153.481,261.395 151.5,262C 152.756,262.417 153.423,263.25 153.5,264.5C 152.504,264.586 151.671,264.252 151,263.5C 150.25,264.126 149.416,264.626 148.5,265C 149.654,265.914 149.487,266.747 148,267.5C 146.281,267.235 144.448,266.735 142.5,266C 138.918,268.017 138.918,269.684 142.5,271C 141.833,271.667 141.167,272.333 140.5,273C 141.252,273.671 141.586,274.504 141.5,275.5C 138.167,278.5 134.833,281.5 131.5,284.5C 129.973,284.427 128.973,285.094 128.5,286.5C 127.5,288.167 126.167,289.5 124.5,290.5C 123.198,289.643 121.865,289.143 120.5,289C 120.957,289.414 121.291,289.914 121.5,290.5C 120.242,289.984 119.242,290.65 118.5,292.5C 117.571,293.689 117.238,295.022 117.5,296.5C 114.774,296.264 112.441,297.097 110.5,299C 111.167,299.333 111.833,299.667 112.5,300C 109.553,300.112 108.22,301.612 108.5,304.5C 106.766,307.2 104.432,309.2 101.5,310.5C 99.0885,310.137 97.5885,311.137 97,313.5C 96.0862,312.346 95.2529,312.513 94.5,314C 95.2524,314.671 95.5858,315.504 95.5,316.5C 93.9731,316.427 92.9731,317.094 92.5,318.5C 91.8333,319.833 90.8333,320.833 89.5,321.5C 88.1667,321.5 86.8333,321.5 85.5,321.5C 85.5,322.5 85.5,323.5 85.5,324.5C 82.3687,328.542 78.702,331.875 74.5,334.5C 72.7085,334.634 71.0418,334.301 69.5,333.5C 69.5,306.167 69.5,278.833 69.5,251.5C 57.9256,251.143 46.4256,250.143 35,248.5C 34.2904,249.973 33.1238,250.64 31.5,250.5C 31.5,203.833 31.5,157.167 31.5,110.5C 43.8333,110.5 56.1667,110.5 68.5,110.5C 69.3094,109.531 70.3094,108.698 71.5,108C 70.1753,93.8882 69.5087,79.5549 69.5,65C 69.564,47.8357 69.8973,31.0024 70.5,14.5C 71.5,15.1667 72.5,15.8333 73.5,16.5C 77.8792,19.7004 81.8792,23.3671 85.5,27.5C 85.8333,28.5 86.5,29.1667 87.5,29.5C 87.9731,30.9063 88.9731,31.573 90.5,31.5C 91.9063,31.9731 92.573,32.9731 92.5,34.5C 92.6159,36.575 93.1159,38.575 94,40.5C 94.7175,39.5494 95.5509,39.3828 96.5,40C 100.493,42.6596 103.826,45.9929 106.5,50C 110.705,50.496 111.371,52.1627 108.5,55C 109.449,55.6172 110.282,55.4506 111,54.5C 111.333,55.1667 111.667,55.8333 112,56.5C 112.986,55.8288 114.153,55.8288 115.5,56.5C 116.5,57.1667 117.5,57.8333 118.5,58.5C 119.167,58.8333 119.833,59.1667 120.5,59.5C 120.351,60.552 120.517,61.552 121,62.5C 123.335,64.1674 125.169,66.0007 126.5,68C 124.258,70.4685 124.925,71.8019 128.5,72C 127.304,71.3457 127.304,70.8457 128.5,70.5C 129.192,71.0253 129.692,71.6919 130,72.5C 130.718,71.5494 131.551,71.3828 132.5,72C 134.828,76.1723 138.161,79.0057 142.5,80.5C 144.5,81.1667 145.833,82.5 146.5,84.5C 146.833,85.5 147.5,86.1667 148.5,86.5C 147.487,89.4283 148.82,90.7616 152.5,90.5C 152.5,91.5 152.5,92.5 152.5,93.5C 153.833,93.5 155.167,93.5 156.5,93.5C 158.167,94.5 159.5,95.8333 160.5,97.5C 160.811,98.4778 161.478,99.1445 162.5,99.5C 163.5,71.8414 163.833,44.1747 163.5,16.5C 168.167,16.5 172.833,16.5 177.5,16.5C 177.667,43.8354 177.5,71.1687 177,98.5C 176.08,98.9302 175.247,99.2635 174.5,99.5C 175.325,100.386 176.325,100.719 177.5,100.5C 177.343,101.873 177.51,103.207 178,104.5C 178.717,103.956 179.217,103.289 179.5,102.5C 182.933,101.106 185.6,98.7724 187.5,95.5C 188.086,95.7093 188.586,96.0426 189,96.5C 189.352,94.7525 189.852,93.0858 190.5,91.5C 192.764,90.4187 194.931,89.0854 197,87.5C 198.388,88.5536 199.888,88.7203 201.5,88C 200.058,87.6232 199.058,86.7899 198.5,85.5C 198.833,84.8333 199.167,84.1667 199.5,83.5C 200.833,82.5 202.167,81.5 203.5,80.5C 204.922,80.2914 206.255,79.7914 207.5,79C 207.167,78.6667 206.833,78.3333 206.5,78C 209.202,77.0878 210.869,75.2545 211.5,72.5C 211.5,72.1667 211.5,71.8333 211.5,71.5C 213.404,71.2624 214.738,70.2624 215.5,68.5C 220.83,66.5038 224.496,62.8371 226.5,57.5C 229.089,56.5806 231.089,54.914 232.5,52.5C 233.167,51.1667 234.167,50.1667 235.5,49.5C 237.404,49.2624 238.738,48.2624 239.5,46.5C 241.5,43.1667 244.167,40.5 247.5,38.5C 249.027,38.573 250.027,37.9063 250.5,36.5C 251.144,33.856 252.811,32.1894 255.5,31.5C 256.222,31.9175 256.722,32.5842 257,33.5C 259.034,32.2566 259.867,30.7566 259.5,29C 261.67,27.4138 264.004,26.0804 266.5,25C 265.66,23.3335 266.16,23.1669 268,24.5C 269.779,22.9826 269.279,22.1492 266.5,22C 268.063,21.2411 269.063,20.0744 269.5,18.5C 270.785,16.5484 272.451,14.8818 274.5,13.5 Z M 86.5,49.5 C 86.8333,50.1667 87.1667,50.8333 87.5,51.5C 88.2623,53.2624 89.5956,54.2624 91.5,54.5C 91.5,55.8333 92.1667,56.5 93.5,56.5C 94.5387,58.5311 96.2054,59.8645 98.5,60.5C 98.5,60.8333 98.5,61.1667 98.5,61.5C 99.9108,63.914 101.911,65.5806 104.5,66.5C 104.833,67.5 105.5,68.1667 106.5,68.5C 110.553,72.8898 114.887,76.8898 119.5,80.5C 119.833,81.5 120.5,82.1667 121.5,82.5C 124.833,86.5 128.5,90.1667 132.5,93.5C 132.973,94.9063 133.973,95.573 135.5,95.5C 136.5,97.1667 137.833,98.5 139.5,99.5C 141.833,102.5 144.5,105.167 147.5,107.5C 148.859,109.009 148.359,109.676 146,109.5C 125.43,109.496 104.93,109.496 84.5,109.5C 84.5495,89.6951 84.5495,70.0284 84.5,50.5C 84.9569,49.7025 85.6236,49.3691 86.5,49.5 Z M 257.5,50.5 C 257.833,50.5 258.167,50.5 258.5,50.5C 259.496,63.9898 259.829,77.6565 259.5,91.5C 259.5,97.5 259.5,103.5 259.5,109.5C 238.571,109.77 217.904,109.437 197.5,108.5C 197.733,106.938 198.4,105.605 199.5,104.5C 201.461,103.54 203.127,102.207 204.5,100.5C 207.5,98.1667 210.167,95.5 212.5,92.5C 214.5,92.5 215.5,91.5 215.5,89.5C 216.167,89.1667 216.833,88.8333 217.5,88.5C 218.833,87.8333 219.833,86.8333 220.5,85.5C 225.167,81.1667 229.833,76.8333 234.5,72.5C 236.5,71.1667 238.167,69.5 239.5,67.5C 240.833,67.5 241.5,66.8333 241.5,65.5C 244.153,63.845 246.486,61.845 248.5,59.5C 250.5,58.1667 252.167,56.5 253.5,54.5C 254.5,54.1667 255.167,53.5 255.5,52.5C 256.833,52.5 257.5,51.8333 257.5,50.5 Z M 149.5,126.5 C 149.5,126.833 149.5,127.167 149.5,127.5C 147.205,128.136 145.539,129.469 144.5,131.5C 143.167,131.5 142.5,132.167 142.5,133.5C 140.596,133.738 139.262,134.738 138.5,136.5C 136.329,138.5 133.996,140.334 131.5,142C 130.177,142.816 129.511,143.983 129.5,145.5C 126.271,147.942 123.271,150.608 120.5,153.5C 116.833,155.167 114.167,157.833 112.5,161.5C 108.9,163.43 105.9,166.097 103.5,169.5C 102.5,169.833 101.833,170.5 101.5,171.5C 98.9108,172.419 96.9108,174.086 95.5,176.5C 93.5,176.5 92.5,177.5 92.5,179.5C 91.8333,179.5 91.5,179.833 91.5,180.5C 86.1737,184.496 81.1737,188.829 76.5,193.5C 73.8605,195.473 71.5272,197.806 69.5,200.5C 68.5222,200.811 67.8555,201.478 67.5,202.5C 68.3978,213.137 68.7311,224.137 68.5,235.5C 60.747,235.799 53.0804,235.466 45.5,234.5C 45.5,234.167 45.5,233.833 45.5,233.5C 46.4984,198.004 46.8317,162.337 46.5,126.5C 80.8333,126.5 115.167,126.5 149.5,126.5 Z M 192.5,126.5 C 227.167,126.5 261.833,126.5 296.5,126.5C 296.5,162.833 296.5,199.167 296.5,235.5C 288.833,235.5 281.167,235.5 273.5,235.5C 273.828,223.655 273.495,211.988 272.5,200.5C 271.167,199.167 269.833,197.833 268.5,196.5C 268.167,196.5 267.833,196.5 267.5,196.5C 264.215,192.548 260.548,188.881 256.5,185.5C 256.167,184.5 255.5,183.833 254.5,183.5C 249.859,179.195 245.193,174.861 240.5,170.5C 239.778,169.449 238.778,168.782 237.5,168.5C 235.882,166.215 233.882,164.215 231.5,162.5C 230.833,161.167 229.833,160.167 228.5,159.5C 227.738,157.738 226.404,156.738 224.5,156.5C 221.41,152.468 217.743,149.135 213.5,146.5C 210.215,142.548 206.548,138.881 202.5,135.5C 201.474,134.147 200.141,133.147 198.5,132.5C 197.415,130.413 195.749,129.08 193.5,128.5C 193.167,127.833 192.833,127.167 192.5,126.5 Z M 180.5,137.5 C 181.5,139.167 182.833,140.5 184.5,141.5C 186.239,144.243 188.573,146.243 191.5,147.5C 191.5,148.833 192.167,149.5 193.5,149.5C 194.911,151.914 196.911,153.581 199.5,154.5C 199.5,154.833 199.5,155.167 199.5,155.5C 200.262,157.262 201.596,158.262 203.5,158.5C 205.167,160.833 207.167,162.833 209.5,164.5C 210.559,166.555 212.225,167.889 214.5,168.5C 214.5,169.833 215.167,170.5 216.5,170.5C 217.167,171.833 218.167,172.833 219.5,173.5C 221.89,176.229 224.557,178.562 227.5,180.5C 227.5,181.167 227.833,181.5 228.5,181.5C 228.5,182.833 229.167,183.5 230.5,183.5C 232.953,186.067 235.62,188.401 238.5,190.5C 240.833,193.5 243.5,196.167 246.5,198.5C 247.167,199.167 247.833,199.833 248.5,200.5C 249.262,202.262 250.596,203.262 252.5,203.5C 252.5,204.167 252.833,204.5 253.5,204.5C 253.5,205.833 254.167,206.5 255.5,206.5C 255.783,207.289 256.283,207.956 257,208.5C 257.5,239.832 257.667,271.165 257.5,302.5C 257.565,302.938 257.399,303.272 257,303.5C 256.005,302.934 255.172,302.267 254.5,301.5C 254.5,301.167 254.5,300.833 254.5,300.5C 251.5,298.5 248.5,296.5 245.5,294.5C 244.215,292.548 242.549,290.882 240.5,289.5C 239.5,287.833 238.167,286.5 236.5,285.5C 235.738,283.738 234.404,282.738 232.5,282.5C 232.167,281.5 231.5,280.833 230.5,280.5C 230.167,279.5 229.5,278.833 228.5,278.5C 224.526,274.862 220.526,271.195 216.5,267.5C 214.809,266.136 213.142,264.803 211.5,263.5C 209.909,261.367 207.909,259.701 205.5,258.5C 204.167,256.5 202.5,254.833 200.5,253.5C 199.738,251.738 198.404,250.738 196.5,250.5C 191.468,245.133 186.135,240.133 180.5,235.5C 179.188,202.519 179.188,169.852 180.5,137.5 Z M 160.5,138.5 C 161.586,138.62 162.253,139.287 162.5,140.5C 162.475,171.674 162.475,203.007 162.5,234.5C 162.5,234.833 162.5,235.167 162.5,235.5C 158.873,237.794 155.539,240.46 152.5,243.5C 150.527,244.806 148.861,246.473 147.5,248.5C 145.596,248.738 144.262,249.738 143.5,251.5C 143.5,251.833 143.5,252.167 143.5,252.5C 139.564,254.766 136.231,257.766 133.5,261.5C 133.167,261.5 132.833,261.5 132.5,261.5C 126.177,266.491 120.177,271.824 114.5,277.5C 111.833,279.5 109.5,281.833 107.5,284.5C 104.553,285.781 102.219,287.781 100.5,290.5C 95.5434,294.446 90.5434,298.446 85.5,302.5C 85.7068,287.82 85.3735,273.153 84.5,258.5C 85.2271,241.509 85.7271,224.509 86,207.5C 86.7172,206.956 87.2172,206.289 87.5,205.5C 88.5,205.167 89.1667,204.5 89.5,203.5C 91.0269,203.573 92.0269,202.906 92.5,201.5C 95.4729,199.194 98.1395,196.527 100.5,193.5C 103.153,191.845 105.486,189.845 107.5,187.5C 108.833,186.833 109.833,185.833 110.5,184.5C 113.207,182.157 115.874,179.823 118.5,177.5C 119.833,176.833 120.833,175.833 121.5,174.5C 125.167,171.167 128.833,167.833 132.5,164.5C 135.5,162.167 138.167,159.5 140.5,156.5C 142.5,156.5 143.5,155.5 143.5,153.5C 147.12,151.547 150.12,148.881 152.5,145.5C 155.784,143.883 158.451,141.55 160.5,138.5 Z"/></g>
<g><path style="opacity:0.116" fill="#000808" d="M 178.5,15.5 C 179.191,44.0115 179.858,72.3449 180.5,100.5C 179.833,100.5 179.5,100.833 179.5,101.5C 179.5,101.833 179.5,102.167 179.5,102.5C 178.502,73.6715 178.169,44.6715 178.5,15.5 Z"/></g>
<g><path style="opacity:0.913" fill="#00151a" d="M 178.5,15.5 C 178.169,44.6715 178.502,73.6715 179.5,102.5C 179.217,103.289 178.717,103.956 178,104.5C 177.51,103.207 177.343,101.873 177.5,100.5C 176.325,100.719 175.325,100.386 174.5,99.5C 175.247,99.2635 176.08,98.9302 177,98.5C 177.5,71.1687 177.667,43.8354 177.5,16.5C 172.833,16.5 168.167,16.5 163.5,16.5C 163.5,16.1667 163.5,15.8333 163.5,15.5C 168.809,15.4081 173.809,15.4081 178.5,15.5 Z"/></g>
<g><path style="opacity:0.044" fill="#000000" d="M 163.5,15.5 C 163.5,15.8333 163.5,16.1667 163.5,16.5C 163.833,44.1747 163.5,71.8414 162.5,99.5C 161.478,99.1445 160.811,98.4778 160.5,97.5C 161.497,97.5299 162.164,97.0299 162.5,96C 162.189,93.6775 161.856,91.3442 161.5,89C 162.162,64.4023 162.829,39.9023 163.5,15.5 Z"/></g>
<g><path style="opacity:0.932" fill="#001318" d="M 269.5,18.5 C 269.063,20.0744 268.063,21.2411 266.5,22C 269.279,22.1492 269.779,22.9826 268,24.5C 266.16,23.1669 265.66,23.3335 266.5,25C 264.004,26.0804 261.67,27.4138 259.5,29C 259.867,30.7566 259.034,32.2566 257,33.5C 256.722,32.5842 256.222,31.9175 255.5,31.5C 255.414,30.5041 255.748,29.6708 256.5,29C 260.727,25.2635 265.06,21.7635 269.5,18.5 Z"/></g>
<g><path style="opacity:0.004" fill="#000405" d="M 85.5,27.5 C 86.8333,27.5 87.5,28.1667 87.5,29.5C 86.5,29.1667 85.8333,28.5 85.5,27.5 Z"/></g>
<g><path style="opacity:0.016" fill="#000405" d="M 87.5,29.5 C 89.0269,29.427 90.0269,30.0937 90.5,31.5C 88.9731,31.573 87.9731,30.9063 87.5,29.5 Z"/></g>
<g><path style="opacity:0.776" fill="#000e13" d="M 250.5,36.5 C 250.027,37.9063 249.027,38.573 247.5,38.5C 247.973,37.0937 248.973,36.427 250.5,36.5 Z"/></g>
<g><path style="opacity:0.267" fill="#00090a" d="M 312.5,110.5 C 312.167,110.5 311.833,110.5 311.5,110.5C 299.5,110.5 287.5,110.5 275.5,110.5C 275.832,77.9957 275.498,45.6624 274.5,13.5C 274.783,12.7109 275.283,12.0442 276,11.5C 276.273,13.1012 276.773,14.6012 277.5,16C 276.521,46.5454 276.187,77.0454 276.5,107.5C 277.966,109.657 279.8,109.99 282,108.5C 292.265,109.156 302.432,109.822 312.5,110.5 Z"/></g>
<g><path style="opacity:0.836" fill="#00151a" d="M 259.5,48.5 C 259.56,47.9569 259.893,47.6236 260.5,47.5C 260.859,67.9871 261.859,88.3204 263.5,108.5C 262.643,109.425 261.643,110.092 260.5,110.5C 260.5,104.167 260.5,97.8333 260.5,91.5C 260.829,76.9903 260.496,62.6569 259.5,48.5 Z"/></g>
<g><path style="opacity:0.706" fill="#000e13" d="M 239.5,46.5 C 238.738,48.2624 237.404,49.2624 235.5,49.5C 236.262,47.7376 237.596,46.7376 239.5,46.5 Z"/></g>
<g><path style="opacity:0.783" fill="#001217" d="M 86.5,49.5 C 85.6236,49.3691 84.9569,49.7025 84.5,50.5C 84.5495,70.0284 84.5495,89.6951 84.5,109.5C 84.5,109.833 84.5,110.167 84.5,110.5C 83.1717,89.3296 83.1717,67.9962 84.5,46.5C 85.9185,47.0047 86.5852,48.0047 86.5,49.5 Z"/></g>
<g><path style="opacity:0.412" fill="#00090c" d="M 87.5,51.5 C 89.4044,51.7376 90.7377,52.7376 91.5,54.5C 89.5956,54.2624 88.2623,53.2624 87.5,51.5 Z"/></g>
<g><path style="opacity:0.927" fill="#001217" d="M 92.5,34.5 C 100.785,40.8116 108.452,47.8116 115.5,55.5C 115.5,55.8333 115.5,56.1667 115.5,56.5C 114.153,55.8288 112.986,55.8288 112,56.5C 111.667,55.8333 111.333,55.1667 111,54.5C 110.282,55.4506 109.449,55.6172 108.5,55C 111.371,52.1627 110.705,50.496 106.5,50C 103.826,45.9929 100.493,42.6596 96.5,40C 95.5509,39.3828 94.7175,39.5494 94,40.5C 93.1159,38.575 92.6159,36.575 92.5,34.5 Z"/></g>
<g><path style="opacity:0.004" fill="#000507" d="M 257.5,50.5 C 257.5,51.8333 256.833,52.5 255.5,52.5C 255.833,51.5 256.5,50.8333 257.5,50.5 Z"/></g>
<g><path style="opacity:0.858" fill="#000f14" d="M 253.5,54.5 C 252.167,56.5 250.5,58.1667 248.5,59.5C 248.5,56.1667 250.167,54.5 253.5,54.5 Z"/></g>
<g><path style="opacity:0.016" fill="#000405" d="M 91.5,54.5 C 92.5,54.8333 93.1667,55.5 93.5,56.5C 92.1667,56.5 91.5,55.8333 91.5,54.5 Z"/></g>
<g><path style="opacity:0.004" fill="#000506" d="M 115.5,56.5 C 115.5,56.1667 115.5,55.8333 115.5,55.5C 117.5,55.5 118.5,56.5 118.5,58.5C 117.5,57.8333 116.5,57.1667 115.5,56.5 Z"/></g>
<g><path style="opacity:0.875" fill="#000f13" d="M 93.5,56.5 C 94.6879,57.6843 95.8545,57.6843 97,56.5C 97.4101,57.9007 97.9101,59.234 98.5,60.5C 96.2054,59.8645 94.5387,58.5311 93.5,56.5 Z"/></g>
<g><path style="opacity:0.384" fill="#00080b" d="M 232.5,52.5 C 231.089,54.914 229.089,56.5806 226.5,57.5C 227.911,55.086 229.911,53.4194 232.5,52.5 Z"/></g>
<g><path style="opacity:0.043" fill="#000003" d="M 259.5,48.5 C 260.496,62.6569 260.829,76.9903 260.5,91.5C 260.167,91.5 259.833,91.5 259.5,91.5C 259.829,77.6565 259.496,63.9898 258.5,50.5C 258.833,49.8333 259.167,49.1667 259.5,48.5 Z"/></g>
<g><path style="opacity:0.89" fill="#001217" d="M 104.5,66.5 C 101.911,65.5806 99.9108,63.914 98.5,61.5C 100.239,60.5661 101.905,60.5661 103.5,61.5C 102.799,63.1916 103.133,64.8583 104.5,66.5 Z"/></g>
<g><path style="opacity:0.868" fill="#000f14" d="M 226.5,57.5 C 224.496,62.8371 220.83,66.5038 215.5,68.5C 218.785,64.5481 222.452,60.8815 226.5,57.5 Z"/></g>
<g><path style="opacity:0.938" fill="#001317" d="M 120.5,59.5 C 127.917,66.5179 135.251,73.5179 142.5,80.5C 138.161,79.0057 134.828,76.1723 132.5,72C 131.551,71.3828 130.718,71.5494 130,72.5C 129.692,71.6919 129.192,71.0253 128.5,70.5C 127.304,70.8457 127.304,71.3457 128.5,72C 124.925,71.8019 124.258,70.4685 126.5,68C 125.169,66.0007 123.335,64.1674 121,62.5C 120.517,61.552 120.351,60.552 120.5,59.5 Z"/></g>
<g><path style="opacity:0.561" fill="#001217" d="M 68.5,13.5 C 69.4916,13.3284 70.1583,13.6618 70.5,14.5C 69.8973,31.0024 69.564,47.8357 69.5,65C 69.5087,79.5549 70.1753,93.8882 71.5,108C 70.3094,108.698 69.3094,109.531 68.5,110.5C 68.5,110.167 68.5,109.833 68.5,109.5C 68.4496,77.4318 68.4496,45.4318 68.5,13.5 Z"/></g>
<g><path style="opacity:0.004" fill="#000406" d="M 241.5,65.5 C 241.5,66.8333 240.833,67.5 239.5,67.5C 239.833,66.5 240.5,65.8333 241.5,65.5 Z"/></g>
<g><path style="opacity:0.942" fill="#001217" d="M 119.5,80.5 C 114.887,76.8898 110.553,72.8898 106.5,68.5C 107.496,68.5858 108.329,68.2524 109,67.5C 109.576,70.1242 110.91,70.7908 113,69.5C 113.456,70.7441 112.956,71.5774 111.5,72C 114.71,74.3749 117.376,77.2082 119.5,80.5 Z"/></g>
<g><path style="opacity:0.847" fill="#001116" d="M 239.5,67.5 C 238.167,69.5 236.5,71.1667 234.5,72.5C 234.343,71.1266 234.51,69.7932 235,68.5C 235.333,68.8333 235.667,69.1667 236,69.5C 236.71,68.0267 237.876,67.3601 239.5,67.5 Z"/></g>
<g><path style="opacity:0.369" fill="#00090c" d="M 215.5,68.5 C 214.738,70.2624 213.404,71.2624 211.5,71.5C 212.262,69.7376 213.596,68.7376 215.5,68.5 Z"/></g>
<g><path style="opacity:0.806" fill="#001216" d="M 211.5,72.5 C 210.869,75.2545 209.202,77.0878 206.5,78C 206.833,78.3333 207.167,78.6667 207.5,79C 206.255,79.7914 204.922,80.2914 203.5,80.5C 203.833,79.8333 204.167,79.1667 204.5,78.5C 206.239,75.7573 208.573,73.7573 211.5,72.5 Z"/></g>
<g><path style="opacity:0.22" fill="#000609" d="M 204.5,78.5 C 204.167,79.1667 203.833,79.8333 203.5,80.5C 202.167,81.5 200.833,82.5 199.5,83.5C 200.167,80.8333 201.833,79.1667 204.5,78.5 Z"/></g>
<g><path style="opacity:0.91" fill="#001116" d="M 121.5,82.5 C 122.847,83.1712 124.014,83.1712 125,82.5C 126.797,86.9881 129.964,89.8215 134.5,91C 133.402,91.7697 133.402,92.603 134.5,93.5C 133.833,93.5 133.167,93.5 132.5,93.5C 128.5,90.1667 124.833,86.5 121.5,82.5 Z"/></g>
<g><path style="opacity:0.024" fill="#000506" d="M 146.5,84.5 C 148.027,84.427 149.027,85.0937 149.5,86.5C 149.167,86.5 148.833,86.5 148.5,86.5C 147.5,86.1667 146.833,85.5 146.5,84.5 Z"/></g>
<g><path style="opacity:0.408" fill="#000c10" d="M 199.5,83.5 C 199.167,84.1667 198.833,84.8333 198.5,85.5C 197.833,85.5 197.167,85.5 196.5,85.5C 196.973,84.0937 197.973,83.427 199.5,83.5 Z"/></g>
<g><path style="opacity:0.899" fill="#001015" d="M 220.5,85.5 C 219.833,86.8333 218.833,87.8333 217.5,88.5C 217.67,87.1779 217.337,86.0113 216.5,85C 217.819,84.805 219.153,84.9717 220.5,85.5 Z"/></g>
<g><path style="opacity:1" fill="#001419" d="M 196.5,85.5 C 197.167,85.5 197.833,85.5 198.5,85.5C 199.058,86.7899 200.058,87.6232 201.5,88C 199.888,88.7203 198.388,88.5536 197,87.5C 194.931,89.0854 192.764,90.4187 190.5,91.5C 192.194,89.1394 194.194,87.1394 196.5,85.5 Z"/></g>
<g><path style="opacity:0.862" fill="#001217" d="M 148.5,86.5 C 148.833,86.5 149.167,86.5 149.5,86.5C 152.167,88.5 154.5,90.8333 156.5,93.5C 155.167,93.5 153.833,93.5 152.5,93.5C 152.5,92.5 152.5,91.5 152.5,90.5C 148.82,90.7616 147.487,89.4283 148.5,86.5 Z"/></g>
<g><path style="opacity:0.996" fill="#001115" d="M 215.5,89.5 C 215.5,91.5 214.5,92.5 212.5,92.5C 213.953,91.1751 213.619,90.3418 211.5,90C 212.564,88.4894 213.897,88.3228 215.5,89.5 Z"/></g>
<g><path style="opacity:0.365" fill="#000809" d="M 132.5,93.5 C 133.167,93.5 133.833,93.5 134.5,93.5C 134.833,94.1667 135.167,94.8333 135.5,95.5C 133.973,95.573 132.973,94.9063 132.5,93.5 Z"/></g>
<g><path style="opacity:0.9" fill="#001317" d="M 212.5,92.5 C 210.167,95.5 207.5,98.1667 204.5,100.5C 203.652,98.6882 203.652,97.1882 204.5,96C 206.884,94.0981 209.551,92.9314 212.5,92.5 Z"/></g>
<g><path style="opacity:0.827" fill="#001217" d="M 190.5,91.5 C 189.852,93.0858 189.352,94.7525 189,96.5C 188.586,96.0426 188.086,95.7093 187.5,95.5C 185.6,98.7724 182.933,101.106 179.5,102.5C 179.5,102.167 179.5,101.833 179.5,101.5C 180.167,101.5 180.5,101.167 180.5,100.5C 183.626,97.2227 186.959,94.2227 190.5,91.5 Z"/></g>
<g><path style="opacity:0.883" fill="#000f13" d="M 139.5,99.5 C 140.978,99.238 142.311,99.5713 143.5,100.5C 144.889,102.868 146.222,105.201 147.5,107.5C 144.5,105.167 141.833,102.5 139.5,99.5 Z"/></g>
<g><path style="opacity:0.737" fill="#001015" d="M 204.5,100.5 C 203.127,102.207 201.461,103.54 199.5,104.5C 199.967,101.703 201.633,100.369 204.5,100.5 Z"/></g>
<g><path style="opacity:0.153" fill="#000609" d="M 68.5,109.5 C 68.5,109.833 68.5,110.167 68.5,110.5C 56.1667,110.5 43.8333,110.5 31.5,110.5C 31.1667,110.5 30.8333,110.5 30.5,110.5C 31.172,109.733 32.0053,109.066 33,108.5C 44.4773,109.438 56.3106,109.771 68.5,109.5 Z"/></g>
<g><path style="opacity:0.148" fill="#000607" d="M 147.5,107.5 C 148.995,107.415 149.995,108.081 150.5,109.5C 128.51,110.5 106.51,110.833 84.5,110.5C 84.5,110.167 84.5,109.833 84.5,109.5C 104.93,109.496 125.43,109.496 146,109.5C 148.359,109.676 148.859,109.009 147.5,107.5 Z"/></g>
<g><path style="opacity:0.15" fill="#000507" d="M 259.5,91.5 C 259.833,91.5 260.167,91.5 260.5,91.5C 260.5,97.8333 260.5,104.167 260.5,110.5C 238.164,110.667 215.831,110.5 193.5,110C 194.044,109.283 194.711,108.783 195.5,108.5C 196.167,109.833 196.833,109.833 197.5,108.5C 217.904,109.437 238.571,109.77 259.5,109.5C 259.5,103.5 259.5,97.5 259.5,91.5 Z"/></g>
<g><path style="opacity:0.909" fill="#001217" d="M 30.5,110.5 C 30.8333,110.5 31.1667,110.5 31.5,110.5C 31.5,157.167 31.5,203.833 31.5,250.5C 33.1238,250.64 34.2904,249.973 35,248.5C 46.4256,250.143 57.9256,251.143 69.5,251.5C 69.1667,251.5 68.8333,251.5 68.5,251.5C 55.5417,251.574 42.7084,251.574 30,251.5C 29.1684,204.332 29.3351,157.332 30.5,110.5 Z"/></g>
<g><path style="opacity:0.876" fill="#00151b" d="M 296.5,125.5 C 261.329,125.168 226.329,125.502 191.5,126.5C 189.915,125.998 189.415,124.998 190,123.5C 191.587,124.727 192.921,124.394 194,122.5C 210.447,123.826 227.114,124.493 244,124.5C 260.5,124.333 277,124.167 293.5,124C 294.191,122.933 294.691,121.766 295,120.5C 295.318,122.061 296.151,123.228 297.5,124C 296.944,124.383 296.611,124.883 296.5,125.5 Z"/></g>
<g><path style="opacity:0.87" fill="#00151b" d="M 149.5,127.5 C 149.5,127.167 149.5,126.833 149.5,126.5C 115.573,125.501 80.9065,125.167 45.5,125.5C 45.62,124.414 46.2867,123.747 47.5,123.5C 81.6732,124.83 115.84,124.83 150,123.5C 153.459,125.426 153.292,126.759 149.5,127.5 Z"/></g>
<g><path style="opacity:0.035" fill="#000304" d="M 45.5,125.5 C 80.9065,125.167 115.573,125.501 149.5,126.5C 115.167,126.5 80.8333,126.5 46.5,126.5C 46.8317,162.337 46.4984,198.004 45.5,233.5C 45.5,197.5 45.5,161.5 45.5,125.5 Z"/></g>
<g><path style="opacity:0.793" fill="#000d12" d="M 149.5,127.5 C 148.794,129.876 147.127,131.21 144.5,131.5C 145.539,129.469 147.205,128.136 149.5,127.5 Z"/></g>
<g><path style="opacity:0.843" fill="#000f14" d="M 193.5,128.5 C 195.749,129.08 197.415,130.413 198.5,132.5C 196.205,131.864 194.539,130.531 193.5,128.5 Z"/></g>
<g><path style="opacity:0.161" fill="#000508" d="M 144.5,131.5 C 144.167,132.5 143.5,133.167 142.5,133.5C 142.5,132.167 143.167,131.5 144.5,131.5 Z"/></g>
<g><path style="opacity:0.275" fill="#000708" d="M 142.5,133.5 C 141.738,135.262 140.404,136.262 138.5,136.5C 139.262,134.738 140.596,133.738 142.5,133.5 Z"/></g>
<g><path style="opacity:0.922" fill="#00151b" d="M 184.5,141.5 C 182.833,140.5 181.5,139.167 180.5,137.5C 180.44,136.957 180.107,136.624 179.5,136.5C 178.5,169.493 178.167,202.493 178.5,235.5C 177.336,202.336 177.169,169.003 178,135.5C 178.667,134.833 179.333,134.167 180,133.5C 181.008,135.259 182.508,136.426 184.5,137C 183.833,137.333 183.167,137.667 182.5,138C 183.823,138.816 184.489,139.983 184.5,141.5 Z"/></g>
<g><path style="opacity:0.119" fill="#000808" d="M 180.5,137.5 C 179.188,169.852 179.188,202.519 180.5,235.5C 179.833,235.5 179.167,235.5 178.5,235.5C 178.167,202.493 178.5,169.493 179.5,136.5C 180.107,136.624 180.44,136.957 180.5,137.5 Z"/></g>
<g><path style="opacity:0.533" fill="#000b0f" d="M 138.5,136.5 C 136.876,139.79 134.543,142.457 131.5,144.5C 130.833,144.833 130.167,145.167 129.5,145.5C 129.511,143.983 130.177,142.816 131.5,142C 133.996,140.334 136.329,138.5 138.5,136.5 Z"/></g>
<g><path style="opacity:0.826" fill="#001217" d="M 160.5,137.5 C 160.5,137.833 160.5,138.167 160.5,138.5C 158.451,141.55 155.784,143.883 152.5,145.5C 153.511,143.628 154.345,141.628 155,139.5C 155.333,139.833 155.667,140.167 156,140.5C 157.4,139.252 158.9,138.252 160.5,137.5 Z"/></g>
<g><path style="opacity:0.734" fill="#000d12" d="M 184.5,141.5 C 188.033,142.029 190.367,144.029 191.5,147.5C 188.573,146.243 186.239,144.243 184.5,141.5 Z"/></g>
<g><path style="opacity:0.15" fill="#000607" d="M 162.5,234.5 C 162.475,203.007 162.475,171.674 162.5,140.5C 162.253,139.287 161.586,138.62 160.5,138.5C 160.5,138.167 160.5,137.833 160.5,137.5C 161.15,137.196 161.817,136.863 162.5,136.5C 163.83,169.331 163.83,201.998 162.5,234.5 Z"/></g>
<g><path style="opacity:0.91" fill="#001015" d="M 202.5,135.5 C 206.548,138.881 210.215,142.548 213.5,146.5C 211.089,146.863 209.589,145.863 209,143.5C 208.667,143.833 208.333,144.167 208,144.5C 207.431,141.597 205.765,139.597 203,138.5C 202.517,137.552 202.351,136.552 202.5,135.5 Z"/></g>
<g><path style="opacity:0.959" fill="#001318" d="M 131.5,144.5 C 131.489,146.017 130.823,147.184 129.5,148C 126.444,149.856 123.444,151.689 120.5,153.5C 123.271,150.608 126.271,147.942 129.5,145.5C 130.167,145.167 130.833,144.833 131.5,144.5 Z"/></g>
<g><path style="opacity:0.004" fill="#000504" d="M 191.5,147.5 C 192.5,147.833 193.167,148.5 193.5,149.5C 192.167,149.5 191.5,148.833 191.5,147.5 Z"/></g>
<g><path style="opacity:0.858" fill="#001116" d="M 213.5,146.5 C 217.743,149.135 221.41,152.468 224.5,156.5C 221.231,155.16 218.231,153.327 215.5,151C 214.418,149.67 213.751,148.17 213.5,146.5 Z"/></g>
<g><path style="opacity:0.753" fill="#000d11" d="M 193.5,149.5 C 196.089,150.419 198.089,152.086 199.5,154.5C 196.911,153.581 194.911,151.914 193.5,149.5 Z"/></g>
<g><path style="opacity:0.884" fill="#001116" d="M 143.5,153.5 C 143.5,155.5 142.5,156.5 140.5,156.5C 141.171,155.153 141.171,153.986 140.5,153C 141.577,152.53 142.577,152.697 143.5,153.5 Z"/></g>
<g><path style="opacity:0.648" fill="#001318" d="M 311.5,110.5 C 311.833,110.5 312.167,110.5 312.5,110.5C 312.172,156.904 312.506,203.57 313.5,250.5C 300.183,251.499 286.85,251.833 273.5,251.5C 273.167,251.5 272.833,251.5 272.5,251.5C 272.369,250.624 272.702,249.957 273.5,249.5C 284.787,250.645 296.12,250.811 307.5,250C 308.5,249.5 309.5,249 310.5,248.5C 311.5,202.505 311.833,156.505 311.5,110.5 Z"/></g>
<g><path style="opacity:0.388" fill="#000709" d="M 199.5,155.5 C 201.404,155.738 202.738,156.738 203.5,158.5C 201.596,158.262 200.262,157.262 199.5,155.5 Z"/></g>
<g><path style="opacity:0.259" fill="#00080a" d="M 120.5,153.5 C 118.167,156.5 115.5,159.167 112.5,161.5C 114.167,157.833 116.833,155.167 120.5,153.5 Z"/></g>
<g><path style="opacity:0.004" fill="#000508" d="M 224.5,156.5 C 226.404,156.738 227.738,157.738 228.5,159.5C 226.596,159.262 225.262,158.262 224.5,156.5 Z"/></g>
<g><path style="opacity:0.91" fill="#000d12" d="M 203.5,158.5 C 206.5,159.5 208.5,161.5 209.5,164.5C 207.167,162.833 205.167,160.833 203.5,158.5 Z"/></g>
<g><path style="opacity:0.907" fill="#001116" d="M 140.5,156.5 C 138.167,159.5 135.5,162.167 132.5,164.5C 132.966,162.799 132.966,161.299 132.5,160C 133.449,159.383 134.282,159.549 135,160.5C 136,158.833 137,157.167 138,155.5C 138.671,156.252 139.504,156.586 140.5,156.5 Z"/></g>
<g><path style="opacity:0.482" fill="#000a0d" d="M 228.5,159.5 C 229.833,160.167 230.833,161.167 231.5,162.5C 229.5,162.5 228.5,161.5 228.5,159.5 Z"/></g>
<g><path style="opacity:0.884" fill="#001115" d="M 112.5,161.5 C 110.423,165.246 107.423,167.912 103.5,169.5C 105.9,166.097 108.9,163.43 112.5,161.5 Z"/></g>
<g><path style="opacity:0.893" fill="#000f14" d="M 231.5,162.5 C 233.882,164.215 235.882,166.215 237.5,168.5C 233.799,168.133 231.799,166.133 231.5,162.5 Z"/></g>
<g><path style="opacity:0.646" fill="#000f14" d="M 191.5,126.5 C 226.329,125.502 261.329,125.168 296.5,125.5C 297.17,161.902 297.836,198.402 298.5,235C 290.085,236.152 281.585,236.986 273,237.5C 272.5,225.838 272.333,214.171 272.5,202.5C 272.5,201.833 272.5,201.167 272.5,200.5C 273.495,211.988 273.828,223.655 273.5,235.5C 281.167,235.5 288.833,235.5 296.5,235.5C 296.5,199.167 296.5,162.833 296.5,126.5C 261.833,126.5 227.167,126.5 192.5,126.5C 192.167,126.5 191.833,126.5 191.5,126.5 Z"/></g>
<g><path style="opacity:0.004" fill="#000607" d="M 214.5,168.5 C 215.5,168.833 216.167,169.5 216.5,170.5C 215.167,170.5 214.5,169.833 214.5,168.5 Z"/></g>
<g><path style="opacity:0.494" fill="#000e12" d="M 101.5,171.5 C 100.089,173.914 98.0892,175.581 95.5,176.5C 96.9108,174.086 98.9108,172.419 101.5,171.5 Z"/></g>
<g><path style="opacity:0.805" fill="#001014" d="M 121.5,174.5 C 120.833,175.833 119.833,176.833 118.5,177.5C 117.167,174.167 118.167,173.167 121.5,174.5 Z"/></g>
<g><path style="opacity:0.992" fill="#001114" d="M 219.5,173.5 C 221.017,173.511 222.184,174.177 223,175.5C 223.333,175.167 223.667,174.833 224,174.5C 224.564,176.887 225.73,178.887 227.5,180.5C 224.557,178.562 221.89,176.229 219.5,173.5 Z"/></g>
<g><path style="opacity:0.161" fill="#000508" d="M 95.5,176.5 C 94.8333,177.833 93.8333,178.833 92.5,179.5C 92.5,177.5 93.5,176.5 95.5,176.5 Z"/></g>
<g><path style="opacity:0.939" fill="#001015" d="M 240.5,170.5 C 245.193,174.861 249.859,179.195 254.5,183.5C 252.914,182.587 251.414,182.587 250,183.5C 246.945,178.966 243.779,174.633 240.5,170.5 Z"/></g>
<g><path style="opacity:0.942" fill="#001217" d="M 118.5,177.5 C 115.874,179.823 113.207,182.157 110.5,184.5C 110.185,182.774 110.019,181.107 110,179.5C 110.667,180.167 111.333,180.833 112,181.5C 112.862,179.913 113.529,178.246 114,176.5C 114.667,179.167 115.333,179.167 116,176.5C 116.671,177.252 117.504,177.586 118.5,177.5 Z"/></g>
<g><path style="opacity:0.004" fill="#000304" d="M 228.5,181.5 C 229.5,181.833 230.167,182.5 230.5,183.5C 229.167,183.5 228.5,182.833 228.5,181.5 Z"/></g>
<g><path style="opacity:1" fill="#001217" d="M 107.5,187.5 C 105.486,189.845 103.153,191.845 100.5,193.5C 99.3228,191.897 99.4894,190.564 101,189.5C 101.414,189.957 101.914,190.291 102.5,190.5C 103.731,189.349 103.731,188.183 102.5,187C 103,186.5 103.5,186 104,185.5C 104.816,186.823 105.983,187.489 107.5,187.5 Z"/></g>
<g><path style="opacity:0.749" fill="#000e12" d="M 91.5,180.5 C 87.3658,185.977 82.3658,190.31 76.5,193.5C 81.1737,188.829 86.1737,184.496 91.5,180.5 Z"/></g>
<g><path style="opacity:0.848" fill="#001418" d="M 256.5,185.5 C 260.548,188.881 264.215,192.548 267.5,196.5C 266.577,197.303 265.577,197.47 264.5,197C 265.833,196.333 265.833,195.667 264.5,195C 259.469,193.193 256.803,190.026 256.5,185.5 Z"/></g>
<g><path style="opacity:0.915" fill="#001116" d="M 238.5,190.5 C 240.716,191.203 242.549,192.536 244,194.5C 244.718,193.549 245.551,193.383 246.5,194C 245.587,195.414 245.587,196.914 246.5,198.5C 243.5,196.167 240.833,193.5 238.5,190.5 Z"/></g>
<g><path style="opacity:0.91" fill="#001217" d="M 76.5,193.5 C 74.7534,195.675 73.9201,198.008 74,200.5C 73.6667,199.833 73.3333,199.167 73,198.5C 72.1841,199.823 71.0174,200.489 69.5,200.5C 71.5272,197.806 73.8605,195.473 76.5,193.5 Z"/></g>
<g><path style="opacity:0.921" fill="#001418" d="M 268.5,196.5 C 269.833,197.833 271.167,199.167 272.5,200.5C 272.5,201.167 272.5,201.833 272.5,202.5C 270.467,200.817 268.134,199.65 265.5,199C 267.119,198.764 268.119,197.931 268.5,196.5 Z"/></g>
<g><path style="opacity:0.416" fill="#000b0d" d="M 248.5,200.5 C 250.404,200.738 251.738,201.738 252.5,203.5C 250.596,203.262 249.262,202.262 248.5,200.5 Z"/></g>
<g><path style="opacity:0.004" fill="#000305" d="M 92.5,201.5 C 92.0269,202.906 91.0269,203.573 89.5,203.5C 89.9731,202.094 90.9731,201.427 92.5,201.5 Z"/></g>
<g><path style="opacity:0.447" fill="#000f12" d="M 69.5,200.5 C 69.5,212.167 69.5,223.833 69.5,235.5C 69.1667,235.5 68.8333,235.5 68.5,235.5C 68.7311,224.137 68.3978,213.137 67.5,202.5C 67.8555,201.478 68.5222,200.811 69.5,200.5 Z"/></g>
<g><path style="opacity:0.004" fill="#000504" d="M 253.5,204.5 C 254.5,204.833 255.167,205.5 255.5,206.5C 254.167,206.5 253.5,205.833 253.5,204.5 Z"/></g>
<g><path style="opacity:0.813" fill="#000e13" d="M 87.5,205.5 C 87.2172,206.289 86.7172,206.956 86,207.5C 85.7271,224.509 85.2271,241.509 84.5,258.5C 85.3735,273.153 85.7068,287.82 85.5,302.5C 90.5434,298.446 95.5434,294.446 100.5,290.5C 99.5604,292.612 98.3937,294.612 97,296.5C 96.6667,296.167 96.3333,295.833 96,295.5C 91.6742,298.826 87.6742,302.493 84,306.5C 83.3333,273.167 83.3333,239.833 84,206.5C 85.0113,205.663 86.1779,205.33 87.5,205.5 Z"/></g>
<g><path style="opacity:0.942" fill="#00151c" d="M 252.5,203.5 C 254.288,203.215 255.955,203.548 257.5,204.5C 256.429,206.325 257.096,207.492 259.5,208C 258.194,239.217 258.194,270.217 259.5,301C 258.956,301.717 258.289,302.217 257.5,302.5C 257.667,271.165 257.5,239.832 257,208.5C 256.283,207.956 255.783,207.289 255.5,206.5C 255.167,205.5 254.5,204.833 253.5,204.5C 252.833,204.5 252.5,204.167 252.5,203.5 Z"/></g>
<g><path style="opacity:0.644" fill="#001318" d="M 45.5,234.5 C 53.0804,235.466 60.747,235.799 68.5,235.5C 68.8333,235.5 69.1667,235.5 69.5,235.5C 63.021,236.491 56.3543,236.824 49.5,236.5C 49.1667,240.5 48.8333,240.5 48.5,236.5C 46.8212,236.715 45.8212,236.048 45.5,234.5 Z"/></g>
<g><path style="opacity:0.996" fill="#001419" d="M 178.5,235.5 C 179.167,235.5 179.833,235.5 180.5,235.5C 186.135,240.133 191.468,245.133 196.5,250.5C 194.628,249.489 192.628,248.655 190.5,248C 190.833,247.667 191.167,247.333 191.5,247C 189.443,246.695 187.443,246.695 185.5,247C 184.366,245.984 184.699,245.317 186.5,245C 184.974,243.113 182.974,242.113 180.5,242C 183.612,241.149 183.946,239.983 181.5,238.5C 180.914,238.709 180.414,239.043 180,239.5C 179.59,238.099 179.09,236.766 178.5,235.5 Z"/></g>
<g><path style="opacity:0.871" fill="#000f14" d="M 162.5,235.5 C 160.006,239.338 156.673,242.005 152.5,243.5C 155.539,240.46 158.873,237.794 162.5,235.5 Z"/></g>
<g><path style="opacity:0.196" fill="#000607" d="M 147.5,248.5 C 146.738,250.262 145.404,251.262 143.5,251.5C 144.262,249.738 145.596,248.738 147.5,248.5 Z"/></g>
<g><path style="opacity:0.844" fill="#001217" d="M 143.5,252.5 C 143.611,253.117 143.944,253.617 144.5,254C 142.999,255.252 141.332,256.252 139.5,257C 138.107,258.171 137.273,259.671 137,261.5C 136.014,260.829 134.847,260.829 133.5,261.5C 136.231,257.766 139.564,254.766 143.5,252.5 Z"/></g>
<g><path style="opacity:0.956" fill="#001318" d="M 190.5,266.5 C 187.141,263.471 183.808,260.471 180.5,257.5C 180.167,256.5 179.5,255.833 178.5,255.5C 178.897,254.475 179.563,254.308 180.5,255C 182,258.011 182.834,257.511 183,253.5C 182.937,256.767 184.437,258.934 187.5,260C 187.167,260.333 186.833,260.667 186.5,261C 188.464,262.451 189.797,264.284 190.5,266.5 Z"/></g>
<g><path style="opacity:0.923" fill="#00151b" d="M 178.5,255.5 C 178.5,282.833 178.5,310.167 178.5,337.5C 176.833,337.5 175.167,337.5 173.5,337.5C 174.568,336.566 175.901,336.232 177.5,336.5C 177.169,309.328 177.502,282.328 178.5,255.5 Z"/></g>
<g><path style="opacity:0.872" fill="#000f16" d="M 200.5,253.5 C 202.5,254.833 204.167,256.5 205.5,258.5C 202.298,258.463 200.632,256.797 200.5,253.5 Z"/></g>
<g><path style="opacity:0.207" fill="#00090a" d="M 272.5,251.5 C 272.833,251.5 273.167,251.5 273.5,251.5C 273.833,280.841 273.5,310.174 272.5,339.5C 271.893,339.376 271.56,339.043 271.5,338.5C 272.167,338.5 272.5,338.167 272.5,337.5C 272.5,308.833 272.5,280.167 272.5,251.5 Z"/></g>
<g><path style="opacity:0.348" fill="#000b10" d="M 68.5,251.5 C 68.8333,251.5 69.1667,251.5 69.5,251.5C 69.5,278.833 69.5,306.167 69.5,333.5C 69.2155,335.415 69.5489,337.081 70.5,338.5C 70.44,339.043 70.1067,339.376 69.5,339.5C 68.7564,338.009 68.0897,336.509 67.5,335C 68.4793,307.602 68.8126,279.769 68.5,251.5 Z"/></g>
<g><path style="opacity:0.995" fill="#001318" d="M 159.5,258.5 C 158.05,260.923 156.05,262.923 153.5,264.5C 153.423,263.25 152.756,262.417 151.5,262C 153.481,261.395 153.815,260.395 152.5,259C 154.047,258.667 155.38,259.167 156.5,260.5C 157.251,259.624 157.751,258.624 158,257.5C 158.383,258.056 158.883,258.389 159.5,258.5 Z"/></g>
<g><path style="opacity:0.121" fill="#000708" d="M 178.5,255.5 C 179.5,255.833 180.167,256.5 180.5,257.5C 179.879,283.674 179.212,310.341 178.5,337.5C 178.5,310.167 178.5,282.833 178.5,255.5 Z"/></g>
<g><path style="opacity:0.846" fill="#001318" d="M 205.5,258.5 C 207.909,259.701 209.909,261.367 211.5,263.5C 210.504,263.414 209.671,263.748 209,264.5C 207.786,262.951 206.286,261.785 204.5,261C 205.252,260.329 205.586,259.496 205.5,258.5 Z"/></g>
<g><path style="opacity:0.045" fill="#000102" d="M 173.5,337.5 C 175.167,337.5 176.833,337.5 178.5,337.5C 173.36,338.488 168.026,338.821 162.5,338.5C 162.831,311.328 162.498,284.328 161.5,257.5C 161.783,256.711 162.283,256.044 163,255.5C 163.5,282.831 163.667,310.165 163.5,337.5C 166.833,337.5 170.167,337.5 173.5,337.5 Z"/></g>
<g><path style="opacity:1" fill="#00151a" d="M 153.5,264.5 C 149.826,268.507 145.826,272.174 141.5,275.5C 141.586,274.504 141.252,273.671 140.5,273C 141.167,272.333 141.833,271.667 142.5,271C 138.918,269.684 138.918,268.017 142.5,266C 144.448,266.735 146.281,267.235 148,267.5C 149.487,266.747 149.654,265.914 148.5,265C 149.416,264.626 150.25,264.126 151,263.5C 151.671,264.252 152.504,264.586 153.5,264.5 Z"/></g>
<g><path style="opacity:0.835" fill="#001216" d="M 132.5,261.5 C 132.414,262.496 132.748,263.329 133.5,264C 131.059,266.647 127.725,268.98 123.5,271C 122.833,271.667 122.167,272.333 121.5,273C 122.863,275.129 122.529,275.629 120.5,274.5C 118.466,275.559 116.466,276.559 114.5,277.5C 120.177,271.824 126.177,266.491 132.5,261.5 Z"/></g>
<g><path style="opacity:0.286" fill="#00070b" d="M 191.5,267.5 C 193.404,267.738 194.738,268.738 195.5,270.5C 193.596,270.262 192.262,269.262 191.5,267.5 Z"/></g>
<g><path style="opacity:0.004" fill="#000505" d="M 195.5,270.5 C 196.5,270.833 197.167,271.5 197.5,272.5C 196.167,272.5 195.5,271.833 195.5,270.5 Z"/></g>
<g><path style="opacity:0.917" fill="#001116" d="M 216.5,267.5 C 220.526,271.195 224.526,274.862 228.5,278.5C 226.956,278.297 225.622,277.63 224.5,276.5C 222.786,277.609 222.119,276.942 222.5,274.5C 221.448,274.649 220.448,274.483 219.5,274C 220.258,272.636 219.758,271.469 218,270.5C 216.703,271.784 215.536,271.617 214.5,270C 215.756,269.583 216.423,268.75 216.5,267.5 Z"/></g>
<g><path style="opacity:0.83" fill="#001014" d="M 197.5,272.5 C 200.204,272.67 201.871,274.003 202.5,276.5C 200.251,275.92 198.585,274.587 197.5,272.5 Z"/></g>
<g><path style="opacity:0.835" fill="#001116" d="M 202.5,276.5 C 204.91,276.921 206.743,278.254 208,280.5C 208.333,280.167 208.667,279.833 209,279.5C 209.791,280.745 210.291,282.078 210.5,283.5C 207.19,281.854 204.523,279.52 202.5,276.5 Z"/></g>
<g><path style="opacity:0.935" fill="#001419" d="M 230.5,280.5 C 231.5,280.833 232.167,281.5 232.5,282.5C 233.262,284.262 234.596,285.262 236.5,285.5C 238.167,286.5 239.5,287.833 240.5,289.5C 239.153,288.829 237.986,288.829 237,289.5C 235.513,288.747 235.346,287.914 236.5,287C 232.901,286.236 230.901,284.07 230.5,280.5 Z"/></g>
<g><path style="opacity:0.972" fill="#001318" d="M 114.5,277.5 C 113.797,279.716 112.464,281.549 110.5,283C 112.929,283.451 113.096,284.285 111,285.5C 109.989,284.663 108.822,284.33 107.5,284.5C 109.5,281.833 111.833,279.5 114.5,277.5 Z"/></g>
<g><path style="opacity:0.004" fill="#000506" d="M 232.5,282.5 C 234.404,282.738 235.738,283.738 236.5,285.5C 234.596,285.262 233.262,284.262 232.5,282.5 Z"/></g>
<g><path style="opacity:0.012" fill="#000304" d="M 131.5,284.5 C 131.027,285.906 130.027,286.573 128.5,286.5C 128.973,285.094 129.973,284.427 131.5,284.5 Z"/></g>
<g><path style="opacity:0.251" fill="#000709" d="M 210.5,284.5 C 212.404,284.738 213.738,285.738 214.5,287.5C 212.596,287.262 211.262,286.262 210.5,284.5 Z"/></g>
<g><path style="opacity:0.936" fill="#00151a" d="M 226.5,298.5 C 222.174,295.174 218.174,291.507 214.5,287.5C 213.738,285.738 212.404,284.738 210.5,284.5C 210.5,284.167 210.5,283.833 210.5,283.5C 211.822,283.33 212.989,283.663 214,284.5C 214.388,283.572 215.055,282.905 216,282.5C 217.762,282.944 217.595,283.444 215.5,284C 217.053,285.097 218.386,286.43 219.5,288C 216.972,288.669 216.972,289.502 219.5,290.5C 220.86,288.152 222.527,287.985 224.5,290C 222.579,291.031 222.579,292.531 224.5,294.5C 225.086,294.291 225.586,293.957 226,293.5C 225.229,295.18 225.395,296.847 226.5,298.5 Z"/></g>
<g><path style="opacity:0.958" fill="#001318" d="M 124.5,290.5 C 122.393,292.727 120.06,294.727 117.5,296.5C 117.238,295.022 117.571,293.689 118.5,292.5C 119.242,290.65 120.242,289.984 121.5,290.5C 121.291,289.914 120.957,289.414 120.5,289C 121.865,289.143 123.198,289.643 124.5,290.5 Z"/></g>
<g><path style="opacity:0.918" fill="#001217" d="M 117.5,296.5 C 115.105,299.861 112.105,302.528 108.5,304.5C 108.22,301.612 109.553,300.112 112.5,300C 111.833,299.667 111.167,299.333 110.5,299C 112.441,297.097 114.774,296.264 117.5,296.5 Z"/></g>
<g><path style="opacity:0.6" fill="#000d13" d="M 226.5,298.5 C 228.027,298.427 229.027,299.094 229.5,300.5C 227.973,300.573 226.973,299.906 226.5,298.5 Z"/></g>
<g><path style="opacity:0.919" fill="#001216" d="M 245.5,294.5 C 248.5,296.5 251.5,298.5 254.5,300.5C 254.5,300.833 254.5,301.167 254.5,301.5C 251.538,301.045 248.871,299.879 246.5,298C 245.663,296.989 245.33,295.822 245.5,294.5 Z"/></g>
<g><path style="opacity:0.95" fill="#001217" d="M 236.5,307.5 C 233.785,305.452 231.452,303.118 229.5,300.5C 230.117,300.389 230.617,300.056 231,299.5C 231.979,301.32 233.479,302.487 235.5,303C 235.167,303.333 234.833,303.667 234.5,304C 235.973,304.71 236.64,305.876 236.5,307.5 Z"/></g>
<g><path style="opacity:0.889" fill="#001014" d="M 236.5,307.5 C 238.308,307.491 239.975,307.991 241.5,309C 243.334,311.663 245.334,314.163 247.5,316.5C 243.537,313.871 239.871,310.871 236.5,307.5 Z"/></g>
<g><path style="opacity:0.873" fill="#001014" d="M 101.5,310.5 C 99.8333,312.833 97.8333,314.833 95.5,316.5C 95.5858,315.504 95.2524,314.671 94.5,314C 95.2529,312.513 96.0862,312.346 97,313.5C 97.5885,311.137 99.0885,310.137 101.5,310.5 Z"/></g>
<g><path style="opacity:0.035" fill="#000305" d="M 95.5,316.5 C 95.0269,317.906 94.0269,318.573 92.5,318.5C 92.9731,317.094 93.9731,316.427 95.5,316.5 Z"/></g>
<g><path style="opacity:0.899" fill="#001014" d="M 247.5,317.5 C 250.467,317.989 253.133,319.155 255.5,321C 255.167,321.333 254.833,321.667 254.5,322C 255.253,323.487 256.086,323.654 257,322.5C 257.791,323.745 258.291,325.078 258.5,326.5C 254.537,323.871 250.871,320.871 247.5,317.5 Z"/></g>
<g><path style="opacity:0.814" fill="#001116" d="M 89.5,321.5 C 88.5637,322.974 87.2303,323.974 85.5,324.5C 85.5,323.5 85.5,322.5 85.5,321.5C 86.8333,321.5 88.1667,321.5 89.5,321.5 Z"/></g>
<g><path style="opacity:0.008" fill="#000506" d="M 258.5,326.5 C 259.5,326.833 260.167,327.5 260.5,328.5C 259.167,328.5 258.5,327.833 258.5,326.5 Z"/></g>
<g><path style="opacity:0.876" fill="#001317" d="M 267.5,334.5 C 264.599,333.208 262.266,331.208 260.5,328.5C 261.75,328.423 262.583,327.756 263,326.5C 264.765,329.032 266.265,331.699 267.5,334.5 Z"/></g>
<g><path style="opacity:0.935" fill="#001117" d="M 272.5,337.5 C 272.5,338.167 272.167,338.5 271.5,338.5C 269.833,337.5 268.5,336.167 267.5,334.5C 268.496,334.586 269.329,334.252 270,333.5C 270.29,335.111 271.123,336.444 272.5,337.5 Z"/></g>
<g><path style="opacity:0.992" fill="#001418" d="M 69.5,333.5 C 71.0418,334.301 72.7085,334.634 74.5,334.5C 73.5,336.167 72.1667,337.5 70.5,338.5C 69.5489,337.081 69.2155,335.415 69.5,333.5 Z"/></g>
</svg>
